<?xml version="1.0" encoding="utf-8"?>
<!-- Uploaded to: SVG Repo, www.svgrepo.com, Generator: SVG Repo Mixer Tools -->
<svg fill="#000000" width="800px" height="800px" viewBox="0 0 32 32" version="1.1" xmlns="http://www.w3.org/2000/svg">
<title>apple</title>
<path d="M20.411 5.79c0.98-1.14 1.576-2.634 1.576-4.267 0-0.183-0.007-0.364-0.022-0.542l0.002 0.023c-1.769 0.18-3.314 1.019-4.407 2.264l-0.007 0.008c-0.997 1.107-1.607 2.579-1.607 4.194 0 0.157 0.006 0.314 0.017 0.468l-0.001-0.021c0.017 0 0.037 0 0.058 0 1.774 0 3.356-0.826 4.381-2.115l0.009-0.011zM16.19 9.622c-1.185 0-3.018-1.347-4.949-1.3-2.661 0.073-4.959 1.558-6.18 3.73l-0.019 0.037c-2.646 4.592-0.682 11.375 1.898 15.108 1.266 1.817 2.759 3.861 4.739 3.798 1.899-0.081 2.612-1.233 4.917-1.233 2.288 0 2.937 1.233 4.949 1.185 2.046-0.032 3.344-1.849 4.594-3.684 0.848-1.227 1.554-2.641 2.044-4.152l0.032-0.115c-2.38-1.033-4.016-3.359-4.024-6.068v-0.001c0.023-2.406 1.304-4.507 3.216-5.68l0.029-0.017c-1.24-1.741-3.221-2.884-5.473-2.969l-0.013-0c-2.499-0.195-4.592 1.362-5.761 1.362z"></path>
</svg>