<?xml version="1.0" encoding="iso-8859-1"?>
<!-- Generator: Adobe Illustrator 18.0.0, SVG Export Plug-In . SVG Version: 6.00 Build 0)  -->
<!DOCTYPE svg PUBLIC "-//W3C//DTD SVG 1.1//EN" "http://www.w3.org/Graphics/SVG/1.1/DTD/svg11.dtd">
<svg version="1.1" id="Capa_1" xmlns="http://www.w3.org/2000/svg" xmlns:xlink="http://www.w3.org/1999/xlink" x="0px" y="0px"
	 viewBox="0 0 330 330" style="enable-background:new 0 0 330 330;" xml:space="preserve">
<g>
	<path d="M165,0C74.019,0,0,74.019,0,165s74.019,165,165,165s165-74.019,165-165S255.981,0,165,0z M165,300
		c-74.439,0-135-60.561-135-135S90.561,30,165,30s135,60.561,135,135S239.439,300,165,300z"/>
	<path d="M247.157,128.196l-47.476-6.9l-21.23-43.019c-2.527-5.12-7.741-8.362-13.451-8.362s-10.924,3.242-13.451,8.362
		l-21.23,43.019l-47.476,6.9c-5.65,0.821-10.345,4.779-12.108,10.209c-1.765,5.43-0.293,11.391,3.796,15.376l34.353,33.486
		l-8.109,47.282c-0.965,5.628,1.349,11.315,5.968,14.671c4.618,3.355,10.741,3.799,15.797,1.142L165,228.039l42.462,22.323
		c2.195,1.154,4.592,1.723,6.979,1.723c0.017,0,0.033,0,0.05,0c8.271-0.015,14.972-6.725,14.972-15c0-1.152-0.13-2.274-0.375-3.352
		l-7.97-46.466l34.352-33.486c4.089-3.985,5.561-9.946,3.796-15.376C257.502,132.975,252.808,129.017,247.157,128.196z"/>
</g>
<g>
</g>
<g>
</g>
<g>
</g>
<g>
</g>
<g>
</g>
<g>
</g>
<g>
</g>
<g>
</g>
<g>
</g>
<g>
</g>
<g>
</g>
<g>
</g>
<g>
</g>
<g>
</g>
<g>
</g>
</svg>
