<?xml version="1.0" ?>
<!DOCTYPE svg  PUBLIC '-//W3C//DTD SVG 1.1//EN'  'http://www.w3.org/Graphics/SVG/1.1/DTD/svg11.dtd'>
<!-- Uploaded to: SVG Repo, www.svgrepo.com, Generator: SVG Repo Mixer Tools -->
<svg width="800px" height="800px" viewBox="0 0 512 512" version="1.1" xml:space="preserve" xmlns="http://www.w3.org/2000/svg" xmlns:xlink="http://www.w3.org/1999/xlink">
<g id="_x37_15_x2C__card_x2C__love_x2C__heart_x2C__wedding">
<g>
<path d="M458.46,132.01V349.48H231.73H105.07V166.72v-34.71h83.04h208.42H458.46z M250.05,195.95    c0-14.75-11.97-26.72-26.75-26.72c-13.359,0-20.04,6.68-26.72,20.04c-6.68-13.36-13.359-20.04-26.72-20.04    c-14.76,0-26.72,11.97-26.72,26.72c0,26.72,26.72,41.939,53.439,68.66C223.3,237.89,250.05,222.67,250.05,195.95z" style="fill:#FBB14F;"/>
<g>
<polygon points="116.125,177.97 116.125,143.26 199.165,143.26 407.586,143.26 458.46,143.26      458.46,132.01 396.53,132.01 188.11,132.01 105.07,132.01 105.07,166.72 105.07,349.48 116.125,349.48    " style="fill:#E89D43;"/>
<path d="M196.58,189.271c0.472-0.943,0.944-1.844,1.418-2.721c-1.48-1.353-3.063-2.481-4.789-3.382     C194.353,185.022,195.468,187.045,196.58,189.271z" style="fill:#E89D43;"/>
</g>
<polygon points="231.73,349.48 123.351,394.78 39.48,194.14 105.07,166.72 105.07,349.48   " style="fill:#EDD696;"/>
<g>
<polygon points="116.737,354.482 219.763,354.482 231.73,349.48 116.737,349.48    " style="fill:#D8BF82;"/>
<polygon points="113.991,349.48 105.07,349.48 105.07,328.14 51.147,199.142 105.07,176.599      105.07,166.72 39.48,194.14 123.351,394.78 131.503,391.373    " style="fill:#D8BF82;"/>
</g>
<polygon points="365.53,57.85 396.53,132.01 188.11,132.01   " style="fill:#EDD696;"/>
<polygon points="362.864,68.183 389.545,132.01 396.53,132.01 365.53,57.85 188.11,132.01 210.165,132.01       " style="fill:#D8BF82;"/>
<path d="M223.3,169.23c14.78,0,26.75,11.97,26.75,26.72c0,26.72-26.75,41.939-53.47,68.66    c-26.72-26.721-53.439-41.94-53.439-68.66c0-14.75,11.96-26.72,26.72-26.72c13.36,0,20.04,6.68,26.72,20.04    C203.26,175.91,209.94,169.23,223.3,169.23z" style="fill:#EF3E5C;"/>
<g>
<g>
<g>
<path d="M156.891,199.97c0-14.75,11.96-26.72,26.72-26.72c0.273,0,0.527,0.021,0.796,0.026       c-3.908-2.689-8.552-4.046-14.546-4.046c-14.76,0-26.72,11.97-26.72,26.72c0,26.72,26.72,41.939,53.439,68.66       c1.58-1.58,3.16-3.117,4.735-4.622C177.916,238.331,156.891,223.672,156.891,199.97z" style="fill:#E42A53;"/>
</g>
</g>
</g>
<path d="M422.22,173.25h-99.68c-2.762,0-5-2.238-5-5c0-2.761,2.238-5,5-5h99.68c2.762,0,5,2.239,5,5    C427.22,171.012,424.981,173.25,422.22,173.25z" style="fill:#EF3E5C;"/>
<path d="M422.22,200.44h-99.68c-2.762,0-5-2.239-5-5c0-2.762,2.238-5,5-5h99.68c2.762,0,5,2.238,5,5    C427.22,198.201,424.981,200.44,422.22,200.44z" style="fill:#EF3E5C;"/>
<path d="M422.22,227.62h-99.68c-2.762,0-5-2.239-5-5c0-2.762,2.238-5,5-5h99.68c2.762,0,5,2.238,5,5    C427.22,225.381,424.981,227.62,422.22,227.62z" style="fill:#EF3E5C;"/>
<path d="M422.22,254.8h-99.68c-2.762,0-5-2.238-5-5c0-2.761,2.238-5,5-5h99.68c2.762,0,5,2.239,5,5    C427.22,252.562,424.981,254.8,422.22,254.8z" style="fill:#EF3E5C;"/>
<path d="M422.22,300.11H141.32c-2.762,0-5-2.238-5-5s2.238-5,5-5H422.22c2.762,0,5,2.238,5,5    S424.981,300.11,422.22,300.11z" style="fill:#EF3E5C;"/>
<path d="M422.22,327.29H313.48c-2.762,0-5-2.238-5-5s2.238-5,5-5H422.22c2.762,0,5,2.238,5,5    S424.981,327.29,422.22,327.29z" style="fill:#EF3E5C;"/>
<path d="M467.52,426.971H159.44c-2.762,0-5-2.238-5-5s2.238-5,5-5H467.52c2.762,0,5,2.238,5,5    S470.281,426.971,467.52,426.971z" style="fill:#EDD696;"/>
<path d="M222.87,454.15H50.7c-2.761,0-5-2.238-5-5s2.239-5,5-5h172.17c2.762,0,5,2.238,5,5    S225.632,454.15,222.87,454.15z" style="fill:#EDD696;"/>
</g>
</g>
<g id="Layer_1"/>
</svg>