<?xml version="1.0" encoding="utf-8"?><!-- Uploaded to: SVG Repo, www.svgrepo.com, Generator: SVG Repo Mixer Tools -->
<svg fill="#000" width="800px" height="800px" viewBox="0 0 24 24" id="Layer_1" data-name="Layer 1" xmlns="http://www.w3.org/2000/svg"><path d="M24,12A12,12,0,0,1,0,12a1,1,0,0,1,2,0A10,10,0,1,0,12,2a1,1,0,0,1,0-2A12.013,12.013,0,0,1,24,12ZM10.277,11H8a1,1,0,0,0,0,2h2.277A1.994,1.994,0,1,0,13,10.277V7a1,1,0,0,0-2,0v3.277A2,2,0,0,0,10.277,11ZM1.827,8.784a1,1,0,1,0-1-1A1,1,0,0,0,1.827,8.784ZM4.221,5.207a1,1,0,1,0-1-1A1,1,0,0,0,4.221,5.207ZM7.779,2.841a1,1,0,1,0-1-1A1,1,0,0,0,7.779,2.841Z"/></svg>