<svg width="19" height="18" viewBox="0 0 19 18" fill="none" xmlns="http://www.w3.org/2000/svg">
<path d="M9.5 8.02501C14.7473 8.02501 19 6.25118 19 4.06544C19 1.87969 14.7473 0.105865 9.5 0.105865C4.25273 0.105865 0 1.87969 0 4.06544C0 6.25118 4.25273 8.02501 9.5 8.02501ZM9.5 14.3559C5.87441 14.3559 2.66816 13.4838 0.645703 12.1367C0.233789 12.582 0 13.0607 0 13.5654C0 15.7512 4.25273 17.525 9.5 17.525C14.7473 17.525 19 15.7512 19 13.5654C19 13.0607 18.7662 12.582 18.3543 12.1404C16.3318 13.4838 13.1256 14.3559 9.5 14.3559ZM9.5 9.60586C5.87441 9.60586 2.66816 8.7338 0.645703 7.38672C0.233789 7.83204 0 8.31075 0 8.81544C0 11.0012 4.25273 12.775 9.5 12.775C14.7473 12.775 19 11.0012 19 8.81544C19 8.31075 18.7662 7.83204 18.3543 7.39044C16.3318 8.7338 13.1256 9.60586 9.5 9.60586Z" fill="#000"/>
</svg>
