<?xml version="1.0" encoding="utf-8"?><!-- Uploaded to: SVG Repo, www.svgrepo.com, Generator: SVG Repo Mixer Tools -->
<svg width="800px" height="800px" viewBox="0 0 24 24" fill="none" xmlns="http://www.w3.org/2000/svg"><path d="M10.968 18.769C15.495 18.107 19 14.434 19 9.938a8.49 8.49 0 0 0-.216-1.912C20.718 9.178 22 11.188 22 13.475a6.1 6.1 0 0 1-1.113 3.506c.06.949.396 1.781 1.01 2.497a.43.43 0 0 1-.36.71c-1.367-.111-2.485-.426-3.354-.945A7.434 7.434 0 0 1 15 19.95a7.36 7.36 0 0 1-4.032-1.181z" fill="#000"/><path d="M7.625 16.657c.6.142 1.228.218 1.875.218 4.142 0 7.5-3.106 7.5-6.938C17 6.107 13.642 3 9.5 3 5.358 3 2 6.106 2 9.938c0 1.946.866 3.705 2.262 4.965a4.406 4.406 0 0 1-1.045 2.29.46.46 0 0 0 .386.76c1.7-.138 3.041-.57 4.022-1.296z" fill="#000"/></svg>