<?xml version="1.0" encoding="utf-8"?><!-- Uploaded to: SVG Repo, www.svgrepo.com, Generator: SVG Repo Mixer Tools -->
<svg width="800px" height="800px" viewBox="0 0 24 24" fill="none" xmlns="http://www.w3.org/2000/svg">
<path fill-rule="evenodd" clip-rule="evenodd" d="M8.39646 3H15.6035C16.7056 2.99999 17.5944 2.99998 18.3138 3.05972C19.0547 3.12125 19.7049 3.25126 20.3049 3.56293C21.2181 4.03731 21.9627 4.78191 22.4371 5.69513C22.7487 6.29513 22.8788 6.94535 22.9403 7.68616C23 8.40556 23 9.29444 23 10.3965V13.6035C23 14.7056 23 15.5944 22.9403 16.3138C22.8788 17.0547 22.7487 17.7049 22.4371 18.3049C21.9627 19.2181 21.2181 19.9627 20.3049 20.4371C19.7049 20.7487 19.0547 20.8788 18.3138 20.9403C17.5944 21 16.7056 21 15.6035 21H8.39649C7.29444 21 6.40557 21 5.68616 20.9403C4.94535 20.8788 4.29513 20.7487 3.69513 20.4371C2.78191 19.9627 2.03731 19.2181 1.56293 18.3049C1.25126 17.7049 1.12125 17.0547 1.05972 16.3138C0.999982 15.5944 0.99999 14.7056 1 13.6035V10.3965C0.99999 9.29442 0.999982 8.40556 1.05972 7.68616C1.12125 6.94535 1.25126 6.29513 1.56293 5.69513C2.03731 4.78191 2.78191 4.03731 3.69513 3.56293C4.29513 3.25126 4.94535 3.12125 5.68616 3.05972C6.40556 2.99998 7.29442 2.99999 8.39646 3ZM5.25274 5.1305C6.10138 5.32962 6.88918 5.7516 7.53017 6.36207L10.469 9.16092C10.8754 9.54798 11.1374 9.7965 11.3523 9.97018C11.5575 10.1361 11.6541 10.178 11.7075 10.1944C11.8982 10.2527 12.1018 10.2527 12.2925 10.1944C12.3459 10.178 12.4425 10.1361 12.6477 9.97018C12.8626 9.7965 13.1246 9.54798 13.531 9.16092L16.4698 6.36207C17.1108 5.7516 17.8986 5.32962 18.7473 5.1305C18.5792 5.09823 18.3828 5.07234 18.1483 5.05286C17.5214 5.0008 16.7158 5 15.56 5H8.44C7.28423 5 6.47856 5.0008 5.85168 5.05286C5.61716 5.07234 5.42078 5.09823 5.25274 5.1305ZM20.8106 7H19.875C19.1207 7 18.3953 7.29015 17.8491 7.81035L14.8828 10.6355C14.5118 10.9888 14.1908 11.2945 13.9051 11.5255C13.6027 11.77 13.276 11.985 12.8774 12.1069C12.3055 12.2818 11.6945 12.2818 11.1226 12.1069C10.724 11.985 10.3973 11.77 10.0949 11.5255C9.80922 11.2945 9.48823 10.9888 9.1172 10.6354L6.15086 7.81035C5.60466 7.29015 4.87928 7 4.125 7H3.18942C3.12859 7.21664 3.08303 7.48842 3.05286 7.85168C3.0008 8.47856 3 9.28423 3 10.44V13.56C3 14.7158 3.0008 15.5214 3.05286 16.1483C3.10393 16.7632 3.19909 17.116 3.33776 17.3829C3.62239 17.9309 4.06915 18.3776 4.61708 18.6622C4.88403 18.8009 5.23678 18.8961 5.85168 18.9471C6.47856 18.9992 7.28423 19 8.44 19H15.56C16.7158 19 17.5214 18.9992 18.1483 18.9471C18.7632 18.8961 19.116 18.8009 19.3829 18.6622C19.9309 18.3776 20.3776 17.9309 20.6622 17.3829C20.8009 17.116 20.8961 16.7632 20.9471 16.1483C20.9992 15.5214 21 14.7158 21 13.56V10.44C21 9.28423 20.9992 8.47856 20.9471 7.85168C20.917 7.48842 20.8714 7.21664 20.8106 7Z" fill="#000"/>
</svg>