<svg width="18" height="18" viewBox="0 0 18 18" fill="none" xmlns="http://www.w3.org/2000/svg">
<path d="M8.9297 10.9687C9.45184 10.9687 9.9526 10.7613 10.3218 10.3921C10.691 10.0229 10.8984 9.52214 10.8984 9C10.8984 8.94234 10.8958 8.88521 10.8909 8.82879L8.75849 10.9612C8.81491 10.9661 8.87187 10.9687 8.9297 10.9687ZM15.4463 2.91023L14.6953 2.16C14.669 2.13365 14.6332 2.11884 14.5959 2.11884C14.5586 2.11884 14.5229 2.13365 14.4965 2.16L12.5749 4.08217C11.5148 3.54041 10.3232 3.26953 9.00001 3.26953C5.62149 3.26953 3.10079 5.0291 1.4379 8.54824C1.37106 8.68977 1.3364 8.84435 1.3364 9.00088C1.3364 9.1574 1.37106 9.31198 1.4379 9.45351C2.10235 10.8531 2.90245 11.9749 3.83819 12.8188L1.9786 14.6777C1.95225 14.7041 1.93745 14.7399 1.93745 14.7771C1.93745 14.8144 1.95225 14.8502 1.9786 14.8765L2.72901 15.627C2.75538 15.6533 2.79114 15.6681 2.82842 15.6681C2.8657 15.6681 2.90145 15.6533 2.92782 15.627L15.4463 3.10922C15.4593 3.09616 15.4697 3.08065 15.4768 3.06358C15.4839 3.0465 15.4875 3.02821 15.4875 3.00973C15.4875 2.99124 15.4839 2.97295 15.4768 2.95587C15.4697 2.9388 15.4593 2.92329 15.4463 2.91023ZM5.83595 9C5.8359 8.46563 5.97426 7.94037 6.23755 7.47537C6.50084 7.01037 6.88009 6.6215 7.33834 6.34663C7.79659 6.07177 8.31822 5.92028 8.85242 5.90693C9.38662 5.89358 9.91517 6.01883 10.3866 6.27047L9.53192 7.12512C9.18725 7.01475 8.81884 7.00146 8.46711 7.0867C8.11538 7.17194 7.79393 7.35241 7.53802 7.60832C7.28211 7.86423 7.10164 8.18568 7.0164 8.53741C6.93116 8.88914 6.94445 9.25755 7.05481 9.60223L6.20017 10.4569C5.96033 10.0088 5.8352 9.50825 5.83595 9Z" fill="#000"/>
<path d="M16.5621 8.54648C15.9434 7.24336 15.2069 6.18076 14.3527 5.35869L11.819 7.89258C12.0326 8.45088 12.0799 9.05909 11.9553 9.64372C11.8307 10.2284 11.5394 10.7644 11.1168 11.1871C10.6941 11.6098 10.158 11.901 9.5734 12.0256C8.98877 12.1502 8.38056 12.1029 7.82226 11.8893L5.67316 14.0384C6.67019 14.4998 7.77913 14.7305 8.99999 14.7305C12.3785 14.7305 14.8992 12.9709 16.5621 9.45176C16.629 9.31022 16.6636 9.15564 16.6636 8.99912C16.6636 8.84259 16.629 8.68801 16.5621 8.54648Z" fill="#000"/>
</svg>
