<svg width="16" height="12" viewBox="0 0 16 12" fill="none" xmlns="http://www.w3.org/2000/svg">
<path d="M5.96095 6C5.96095 6.52214 6.16837 7.0229 6.53758 7.39212C6.90679 7.76133 7.40755 7.96875 7.9297 7.96875C8.45184 7.96875 8.9526 7.76133 9.32181 7.39212C9.69103 7.0229 9.89845 6.52214 9.89845 6C9.89845 5.47786 9.69103 4.9771 9.32181 4.60788C8.9526 4.23867 8.45184 4.03125 7.9297 4.03125C7.40755 4.03125 6.90679 4.23867 6.53758 4.60788C6.16837 4.9771 5.96095 5.47786 5.96095 6ZM15.5621 5.54648C13.8957 2.03613 11.3768 0.269531 8.00001 0.269531C4.62149 0.269531 2.10431 2.03613 0.437901 5.54824C0.37106 5.68978 0.336395 5.84436 0.336395 6.00088C0.336395 6.1574 0.37106 6.31198 0.437901 6.45352C2.10431 9.96387 4.62325 11.7305 8.00001 11.7305C11.3785 11.7305 13.8957 9.96387 15.5621 6.45176C15.6975 6.16699 15.6975 5.83652 15.5621 5.54648ZM7.9297 9.09375C6.2211 9.09375 4.83595 7.70859 4.83595 6C4.83595 4.29141 6.2211 2.90625 7.9297 2.90625C9.63829 2.90625 11.0234 4.29141 11.0234 6C11.0234 7.70859 9.63829 9.09375 7.9297 9.09375Z" fill="#000"/>
</svg>
