<?xml version="1.0" encoding="iso-8859-1"?>
<!-- Generator: Adobe Illustrator 18.0.0, SVG Export Plug-In . SVG Version: 6.00 Build 0)  -->
<!DOCTYPE svg PUBLIC "-//W3C//DTD SVG 1.1//EN" "http://www.w3.org/Graphics/SVG/1.1/DTD/svg11.dtd">
<svg version="1.1" id="Capa_1" xmlns="http://www.w3.org/2000/svg" xmlns:xlink="http://www.w3.org/1999/xlink" x="0px" y="0px"
	 viewBox="0 0 251.83 251.83" style="enable-background:new 0 0 251.83 251.83;" xml:space="preserve">
<path d="M251.83,49.834v166.107H143.855l-12.735-12.444h-10.408l-12.735,12.444H0V49.834h18.321v140.789v14.905l14.049-4.98
	c23.612-8.371,46.618-12.44,70.332-12.44c4.713,0,9.725,0.188,14.895,0.559l5.352,0.385v0.427l2.967-0.214l2.967,0.214v-0.427
	l5.352-0.385c5.17-0.371,10.182-0.559,14.895-0.559c23.714,0,46.72,4.069,70.332,12.44l14.049,4.98v-14.905V49.834H251.83z
	 M133.479,50.362v127.802c5.261-0.378,10.499-0.587,15.649-0.587c24.821,0,49.12,4.278,73.851,13.046V36.507
	c-5.26-0.413-10.493-0.618-15.631-0.618C182.629,35.889,158.398,40.638,133.479,50.362z M28.851,190.623
	c24.731-8.768,49.029-13.046,73.851-13.046c5.15,0,10.389,0.209,15.649,0.587V50.362c-24.92-9.725-49.15-14.474-73.869-14.474
	c-5.138,0-10.371,0.205-15.631,0.618V190.623z"/>
<g>
</g>
<g>
</g>
<g>
</g>
<g>
</g>
<g>
</g>
<g>
</g>
<g>
</g>
<g>
</g>
<g>
</g>
<g>
</g>
<g>
</g>
<g>
</g>
<g>
</g>
<g>
</g>
<g>
</g>
</svg>
