<?xml version="1.0" ?>

<!-- Uploaded to: SVG Repo, www.svgrepo.com, Generator: SVG Repo Mixer Tools -->
<svg fill="#000" width="800px" height="800px" viewBox="0 0 32 32" xmlns="http://www.w3.org/2000/svg">

<title/>

<g data-name="Layer 2" id="Layer_2">

<path d="M24.49,24.49A12,12,0,1,1,16,4a10,10,0,0,1,0,20A8,8,0,0,1,16,8a6,6,0,0,1,0,12,4,4,0,0,1,0-8,1,1,0,0,0,0-2,6,6,0,0,0,0,12A8,8,0,0,0,16,6a10,10,0,0,0,0,20A12,12,0,0,0,16,2a14,14,0,1,0,9.9,23.9,1,1,0,0,0,0-1.41A1,1,0,0,0,24.49,24.49Z"/>

</g>

</svg>