<svg width="47" height="62" viewBox="0 0 47 62" fill="none" xmlns="http://www.w3.org/2000/svg">
<path d="M44.5425 16.0056C44.295 15.0981 43.4287 14.3969 42.5006 14.5C41.5519 14.5413 40.7475 15.2013 40.5412 16.15C39.675 20.2956 36.8287 24.9363 34.3331 24.9363C33.5081 24.9363 32.6419 24.4206 31.7137 23.41C28.4344 19.8419 26.5162 6.68313 26.0625 1.91875C25.98 1.17625 25.485 0.516255 24.7837 0.227505C24.0825 -0.0612455 23.2781 0.0418795 22.7006 0.536879C12.4087 8.99313 11.3775 22.3169 11.46 28.2569C7.25249 26.1325 5.37562 20.1513 5.35499 20.0894C5.06624 19.1613 4.22061 18.5425 3.23061 18.625C2.26124 18.7075 1.47749 19.4088 1.33312 20.3781C-1.12126 36.0738 0.73499 47.6444 6.79874 54.7394C12.4087 61.2775 19.9162 61.9785 22.8656 61.9785C23.6494 61.9785 24.1444 61.9373 24.1444 61.9373C31.8787 61.4217 37.7569 58.4311 41.6137 53.0067C50.9981 39.8069 44.8106 16.975 44.5425 16.0056Z" fill="#CF9C22"/>
</svg>
