<svg width="147" height="18" viewBox="0 0 147 18" fill="none" xmlns="http://www.w3.org/2000/svg">
<path d="M5.81836 17H0.146484V1H5.86523C7.47461 1 8.86003 1.32031 10.0215 1.96094C11.1829 2.59635 12.0762 3.51042 12.7012 4.70312C13.3314 5.89583 13.6465 7.32292 13.6465 8.98437C13.6465 10.651 13.3314 12.0833 12.7012 13.2812C12.0762 14.4792 11.1777 15.3984 10.0059 16.0391C8.83919 16.6797 7.44336 17 5.81836 17ZM3.5293 14.1016H5.67773C6.67773 14.1016 7.51888 13.9245 8.20117 13.5703C8.88867 13.2109 9.4043 12.6562 9.74805 11.9062C10.097 11.151 10.2715 10.1771 10.2715 8.98437C10.2715 7.80208 10.097 6.83594 9.74805 6.08594C9.4043 5.33594 8.89128 4.78385 8.20898 4.42969C7.52669 4.07552 6.68555 3.89844 5.68555 3.89844H3.5293V14.1016ZM30.8555 9C30.8555 10.7448 30.5247 12.2292 29.8633 13.4531C29.207 14.6771 28.3112 15.612 27.1758 16.2578C26.0456 16.8984 24.7747 17.2187 23.3633 17.2187C21.9414 17.2187 20.6654 16.8958 19.5352 16.25C18.4049 15.6042 17.5117 14.6693 16.8555 13.4453C16.1992 12.2214 15.8711 10.7396 15.8711 9C15.8711 7.25521 16.1992 5.77083 16.8555 4.54688C17.5117 3.32292 18.4049 2.39062 19.5352 1.75C20.6654 1.10417 21.9414 0.781249 23.3633 0.781249C24.7747 0.781249 26.0456 1.10417 27.1758 1.75C28.3112 2.39062 29.207 3.32292 29.8633 4.54688C30.5247 5.77083 30.8555 7.25521 30.8555 9ZM27.4258 9C27.4258 7.86979 27.2565 6.91667 26.918 6.14062C26.5846 5.36458 26.1133 4.77604 25.5039 4.375C24.8945 3.97396 24.181 3.77344 23.3633 3.77344C22.5456 3.77344 21.832 3.97396 21.2227 4.375C20.6133 4.77604 20.1393 5.36458 19.8008 6.14062C19.4674 6.91667 19.3008 7.86979 19.3008 9C19.3008 10.1302 19.4674 11.0833 19.8008 11.8594C20.1393 12.6354 20.6133 13.224 21.2227 13.625C21.832 14.026 22.5456 14.2266 23.3633 14.2266C24.181 14.2266 24.8945 14.026 25.5039 13.625C26.1133 13.224 26.5846 12.6354 26.918 11.8594C27.2565 11.0833 27.4258 10.1302 27.4258 9ZM46.7441 1V17H43.8223L36.8613 6.92969H36.7441V17H33.3613V1H36.3301L43.2363 11.0625H43.377V1H46.7441ZM52.2656 1V2.6875C52.2656 3.16667 52.1719 3.65625 51.9844 4.15625C51.8021 4.65104 51.5573 5.11979 51.25 5.5625C50.9427 6 50.6068 6.3724 50.2422 6.67969L48.7734 5.8125C49.0339 5.40104 49.263 4.94531 49.4609 4.44531C49.6641 3.94531 49.7656 3.36458 49.7656 2.70312V1H52.2656ZM53.9355 3.78906V1H67.0762V3.78906H62.1777V17H58.834V3.78906H53.9355Z" fill="white"/>
<path d="M77.9199 5.60156C77.8574 4.97135 77.5892 4.48177 77.1152 4.13281C76.6413 3.78385 75.998 3.60937 75.1855 3.60937C74.6335 3.60937 74.1673 3.6875 73.7871 3.84375C73.4069 3.99479 73.1152 4.20573 72.9121 4.47656C72.7142 4.7474 72.6152 5.05469 72.6152 5.39844C72.6048 5.6849 72.6647 5.9349 72.7949 6.14844C72.9303 6.36198 73.1152 6.54687 73.3496 6.70312C73.584 6.85417 73.8548 6.98698 74.1621 7.10156C74.4694 7.21094 74.7975 7.30469 75.1465 7.38281L76.584 7.72656C77.2819 7.88281 77.9225 8.09115 78.5059 8.35156C79.0892 8.61198 79.5944 8.93229 80.0215 9.3125C80.4486 9.69271 80.7793 10.1406 81.0137 10.6562C81.2533 11.1719 81.3757 11.763 81.3809 12.4297C81.3757 13.4089 81.1257 14.2578 80.6309 14.9766C80.1413 15.6901 79.4329 16.2448 78.5059 16.6406C77.584 17.0312 76.472 17.2266 75.1699 17.2266C73.8783 17.2266 72.7533 17.0286 71.7949 16.6328C70.8418 16.237 70.097 15.651 69.5605 14.875C69.0293 14.0937 68.7507 13.1276 68.7246 11.9766H71.998C72.0345 12.513 72.1882 12.9609 72.459 13.3203C72.735 13.6745 73.1022 13.9427 73.5605 14.125C74.0241 14.3021 74.5475 14.3906 75.1309 14.3906C75.7038 14.3906 76.2012 14.3073 76.623 14.1406C77.0501 13.974 77.3809 13.7422 77.6152 13.4453C77.8496 13.1484 77.9668 12.8073 77.9668 12.4219C77.9668 12.0625 77.86 11.7604 77.6465 11.5156C77.4382 11.2708 77.1309 11.0625 76.7246 10.8906C76.3236 10.7187 75.8314 10.5625 75.248 10.4219L73.5059 9.98437C72.1569 9.65625 71.0918 9.14323 70.3105 8.44531C69.5293 7.7474 69.1413 6.80729 69.1465 5.625C69.1413 4.65625 69.3991 3.8099 69.9199 3.08594C70.446 2.36198 71.1673 1.79687 72.084 1.39062C73.0007 0.984374 74.0423 0.781249 75.209 0.781249C76.3965 0.781249 77.4329 0.984374 78.3184 1.39062C79.209 1.79687 79.9017 2.36198 80.3965 3.08594C80.8913 3.8099 81.1465 4.64844 81.1621 5.60156H77.9199ZM83.6562 1H87.8281L92.2344 11.75H92.4219L96.8281 1H101V17H97.7188V6.58594H97.5859L93.4453 16.9219H91.2109L87.0703 6.54687H86.9375V17H83.6562V1ZM118.49 9C118.49 10.7448 118.16 12.2292 117.498 13.4531C116.842 14.6771 115.946 15.612 114.811 16.2578C113.68 16.8984 112.41 17.2187 110.998 17.2187C109.576 17.2187 108.3 16.8958 107.17 16.25C106.04 15.6042 105.146 14.6693 104.49 13.4453C103.834 12.2214 103.506 10.7396 103.506 9C103.506 7.25521 103.834 5.77083 104.49 4.54688C105.146 3.32292 106.04 2.39062 107.17 1.75C108.3 1.10417 109.576 0.781249 110.998 0.781249C112.41 0.781249 113.68 1.10417 114.811 1.75C115.946 2.39062 116.842 3.32292 117.498 4.54688C118.16 5.77083 118.49 7.25521 118.49 9ZM115.061 9C115.061 7.86979 114.891 6.91667 114.553 6.14062C114.219 5.36458 113.748 4.77604 113.139 4.375C112.529 3.97396 111.816 3.77344 110.998 3.77344C110.18 3.77344 109.467 3.97396 108.857 4.375C108.248 4.77604 107.774 5.36458 107.436 6.14062C107.102 6.91667 106.936 7.86979 106.936 9C106.936 10.1302 107.102 11.0833 107.436 11.8594C107.774 12.6354 108.248 13.224 108.857 13.625C109.467 14.026 110.18 14.2266 110.998 14.2266C111.816 14.2266 112.529 14.026 113.139 13.625C113.748 13.224 114.219 12.6354 114.553 11.8594C114.891 11.0833 115.061 10.1302 115.061 9ZM120.996 17V1H124.379V8.05469H124.59L130.348 1H134.402L128.465 8.16406L134.473 17H130.426L126.043 10.4219L124.379 12.4531V17H120.996ZM136.164 17V1H146.945V3.78906H139.547V7.60156H146.391V10.3906H139.547V14.2109H146.977V17H136.164Z" fill="#F7BF3A"/>
</svg>
