<?xml version="1.0" encoding="iso-8859-1"?>
<!-- Uploaded to: SVG Repo, www.svgrepo.com, Generator: SVG Repo Mixer Tools -->
<svg fill="#000" height="800px" width="800px" version="1.1" id="Capa_1" xmlns="http://www.w3.org/2000/svg" xmlns:xlink="http://www.w3.org/1999/xlink" 
	 viewBox="0 0 428.637 428.637" xml:space="preserve">
<path id="XMLID_40_" d="M379.149,179.217h-1.99V86.306C377.159,38.717,338.442,0,290.854,0H157.899
	c-47.588,0-86.305,38.717-86.305,86.306v16.104h-2.106c-16.266,0-29.5,13.234-29.5,29.501v164.814
	c0,16.267,13.234,29.501,29.5,29.501h2.106v16.104c0,47.589,38.716,86.306,86.305,86.306h132.955
	c47.589,0,86.306-38.717,86.306-86.306v-92.91h1.99c5.247,0,9.5-4.253,9.5-9.5v-51.204
	C388.649,183.47,384.396,179.217,379.149,179.217z M290.854,19c37.112,0,67.306,30.193,67.306,67.306v92.911h-67.002V86.306
	c0-19.049-6.474-37.23-18.721-52.579c-4.369-5.476-9.38-10.42-14.876-14.727H290.854z M90.594,86.306
	C90.594,49.193,120.787,19,157.899,19h32.46c-20.201,15.982-32.762,40.543-32.762,67.306v16.104H90.594V86.306z M69.488,307.227
	c-5.79,0-10.5-4.711-10.5-10.501V131.911c0-5.79,4.71-10.501,10.5-10.501h113.611c5.792,0,10.503,4.711,10.503,10.501v164.814
	c0,5.79-4.711,10.501-10.503,10.501H69.488z M157.899,409.637c-37.112,0-67.305-30.193-67.305-67.306v-16.104h67.002v16.104
	c0,18.312,6.69,36.104,19.347,51.458c4.861,5.896,10.467,11.228,16.604,15.848H157.899z M224.59,405.284
	c-24.299-9.171-47.994-33.12-47.994-62.953v-16.104h6.502c16.268,0,29.503-13.234,29.503-29.501v-58.812
	c0.337,0.036,0.68,0.055,1.027,0.055c5.247,0,9.5-4.253,9.5-9.5v-28.302c0-5.247-4.253-9.5-9.5-9.5c-0.347,0-0.69,0.019-1.027,0.055
	v-58.811c0-16.267-13.235-29.501-29.503-29.501h-6.502V86.306c0-29.329,19.419-55.274,47.546-63.988
	c27.974,9.123,48.014,35.625,48.014,63.988v92.911h-4.33c-5.247,0-9.5,4.253-9.5,9.5v51.204c0,5.247,4.253,9.5,9.5,9.5h4.33v92.91
	C272.157,372.291,248.716,396.166,224.59,405.284z M358.159,342.331c0,37.112-30.193,67.306-67.306,67.306h-35.296
	c6.059-4.589,11.592-9.884,16.389-15.74c12.567-15.343,19.21-33.174,19.21-51.565v-92.91h67.002V342.331z M369.649,230.421h-92.322
	v-32.204h92.322V230.421z M152.371,171.881c-8.718-2.949-18.168-2.048-26.076,2.228c-7.907-4.275-17.358-5.176-26.077-2.228
	c-17.098,5.782-26.304,24.397-20.522,41.496c3.453,10.209,18.201,23.55,34.313,37.47c2.437,2.105,4.542,3.924,5.848,5.128
	c1.819,1.675,4.128,2.513,6.437,2.513c2.309,0,4.618-0.838,6.436-2.513c1.306-1.202,3.408-3.019,5.842-5.121
	c16.115-13.923,30.867-27.266,34.32-37.477c2.802-8.283,2.21-17.161-1.666-24.999C167.351,180.541,160.654,174.682,152.371,171.881z
	 M154.894,207.29c-2.066,6.107-21.863,23.241-28.6,29.062c-6.729-5.813-26.534-22.954-28.6-29.062
	c-2.426-7.174,1.437-14.984,8.61-17.411c1.435-0.485,2.917-0.722,4.39-0.722c3.358,0,6.664,1.231,9.232,3.551
	c3.616,3.267,9.117,3.268,12.734,0.001c3.697-3.337,8.917-4.421,13.624-2.83c3.476,1.176,6.285,3.634,7.911,6.922
	C155.822,200.089,156.07,203.813,154.894,207.29z"/>
</svg>