<?xml version="1.0" encoding="utf-8"?><!-- Uploaded to: SVG Repo, www.svgrepo.com, Generator: SVG Repo Mixer Tools -->
<svg  viewBox="0 0 24 24" fill="none" xmlns="http://www.w3.org/2000/svg">
<path fill-rule="evenodd" clip-rule="evenodd" d="M10.295 6.63012C9.29593 6.0057 8 6.72396 8 7.90212V16.0979C8 17.276 9.29592 17.9943 10.295 17.3699L16.8516 13.272C17.7916 12.6845 17.7916 11.3155 16.8516 10.728L10.295 6.63012ZM10 15.1957V8.80424L15.1132 12L10 15.1957Z" fill="#000"/>
<path fill-rule="evenodd" clip-rule="evenodd" d="M12 1C5.92487 1 1 5.92487 1 12C1 18.0751 5.92487 23 12 23C18.0751 23 23 18.0751 23 12C23 5.92487 18.0751 1 12 1ZM3 12C3 7.02944 7.02944 3 12 3C16.9706 3 21 7.02944 21 12C21 16.9706 16.9706 21 12 21C7.02944 21 3 16.9706 3 12Z" fill="#000"/>
</svg>