<?xml version="1.0" encoding="utf-8"?><!-- Uploaded to: SVG Repo, www.svgrepo.com, Generator: SVG Repo Mixer Tools -->
<svg width="800px" height="800px" viewBox="0 0 24 24" fill="none" xmlns="http://www.w3.org/2000/svg">
<path fill-rule="evenodd" clip-rule="evenodd" d="M6.1094 4.20444C4.78029 3.31836 3 4.27115 3 5.86854V18.1315C3 19.7289 4.78029 20.6817 6.1094 19.7956L15.3066 13.6641C16.4941 12.8725 16.4941 11.1276 15.3066 10.3359L6.1094 4.20444ZM5 5.86854L14.1972 12L5 18.1315V5.86854Z" fill="#000"/>
<path d="M21 5C21 4.44772 20.5523 4 20 4C19.4477 4 19 4.44772 19 5V19C19 19.5523 19.4477 20 20 20C20.5523 20 21 19.5523 21 19V5Z" fill="#000"/>
</svg>