<svg viewBox="0 0 492 492" fill="none" xmlns="http://www.w3.org/2000/svg">
<path fill-rule="evenodd" clip-rule="evenodd" d="M160.924 15.1796C211.563 -3.48493 266.935 -4.97889 318.505 10.9279C350.608 20.8299 380.131 37.1328 405.403 58.6315L413.667 65.9885L439.507 40.1484C458.037 21.6192 489.146 33.3661 491.816 58.3978L492 61.892V184.5H369.391C343.186 184.5 329.496 154.196 345.307 134.608L347.647 132.007L370.144 109.512C350.212 91.384 326.43 77.7304 300.38 69.6957C261.701 57.7657 220.172 58.8862 182.193 72.8845C144.214 86.8831 111.892 112.982 90.2085 147.161C68.5245 181.34 58.6821 221.701 62.1974 262.024C65.7131 302.348 82.3916 340.396 109.663 370.307C136.934 400.217 173.285 420.331 213.113 427.545C252.942 434.759 294.038 428.676 330.067 410.232C366.1 391.792 395.064 362.01 412.502 325.482C419.817 310.157 438.172 303.662 453.501 310.978C468.827 318.293 475.318 336.651 468.003 351.977C444.753 400.678 406.134 440.386 358.093 464.98C310.049 489.57 255.256 497.679 202.151 488.061C149.046 478.439 100.579 451.625 64.2171 411.742C27.8552 371.863 5.61726 321.131 0.929861 267.366C-3.7575 213.601 9.36587 159.786 38.2776 114.215C67.1897 68.6432 110.285 33.844 160.924 15.1796Z" fill="#000"/>
</svg>
