<svg viewBox="0 0 492 492" fill="none" xmlns="http://www.w3.org/2000/svg">
<path fill-rule="evenodd" clip-rule="evenodd" d="M331.076 15.1796C280.437 -3.48493 225.065 -4.97889 173.495 10.9279C141.392 20.8299 111.869 37.1328 86.5969 58.6315L78.3325 65.9885L52.4933 40.1484C33.9631 21.6192 2.8541 33.3661 0.183997 58.3978L-7.62939e-06 61.892V184.5H122.609C148.814 184.5 162.504 154.196 146.693 134.608L144.353 132.007L121.856 109.512C141.788 91.384 165.57 77.7304 191.62 69.6957C230.299 57.7657 271.828 58.8862 309.807 72.8845C347.786 86.8831 380.108 112.982 401.791 147.161C423.475 181.34 433.318 221.701 429.803 262.024C426.287 302.348 409.608 340.396 382.337 370.307C355.066 400.217 318.715 420.331 278.887 427.545C239.058 434.759 197.962 428.676 161.933 410.232C125.9 391.792 96.9363 362.01 79.498 325.482C72.1826 310.157 53.8279 303.662 38.499 310.978C23.1732 318.293 16.6819 336.651 23.9973 351.977C47.2474 400.678 85.8663 440.386 133.907 464.98C181.951 489.57 236.744 497.679 289.849 488.061C342.954 478.439 391.421 451.625 427.783 411.742C464.145 371.863 486.383 321.131 491.07 267.366C495.757 213.601 482.634 159.786 453.722 114.215C424.81 68.6432 381.715 33.844 331.076 15.1796Z" fill="#000"/>
</svg>
