<svg width="25" height="25" viewBox="0 0 25 25" fill="none" xmlns="http://www.w3.org/2000/svg">
<path d="M22.9167 12.9167H24.5833C24.8137 12.9167 25 12.7304 25 12.5C25 12.2696 24.8137 12.0833 24.5833 12.0833H22.9167C22.9137 12.0833 22.9112 12.085 22.9079 12.085C22.8833 11.4575 22.8042 10.8292 22.6638 10.2071C22.6658 10.2067 22.6675 10.2071 22.6696 10.2063L24.2792 9.775C24.5012 9.71542 24.6333 9.48708 24.5737 9.26458C24.5142 9.04208 24.2867 8.91125 24.0633 8.97L22.4537 9.40125C22.4504 9.40208 22.4483 9.40458 22.4454 9.40542C22.26 8.81083 22.0187 8.22542 21.7196 7.65625C21.7225 7.65458 21.7263 7.65417 21.7292 7.65208L23.1725 6.81875C23.3721 6.70375 23.4404 6.44875 23.325 6.24958C23.2096 6.05 22.9537 5.98125 22.7558 6.09708L21.3125 6.93042C21.3083 6.93292 21.3058 6.93708 21.3017 6.94C20.9583 6.39583 20.5733 5.89292 20.1512 5.43458C20.1537 5.43208 20.1575 5.43125 20.16 5.42875L21.3383 4.25042C21.5013 4.0875 21.5013 3.82417 21.3383 3.66125C21.1754 3.49833 20.9121 3.49833 20.7492 3.66125L19.5708 4.83958C19.5679 4.8425 19.5671 4.84625 19.5646 4.84917C19.0958 4.41625 18.5938 4.03042 18.0629 3.69542C18.0646 3.6925 18.0675 3.69042 18.0692 3.68708L18.9025 2.24375C19.0179 2.04458 18.9496 1.79 18.75 1.675C18.5508 1.56 18.2958 1.6275 18.1808 1.8275L17.3475 3.27083C17.3454 3.27458 17.3454 3.27875 17.3437 3.2825C16.7821 2.98792 16.1962 2.74542 15.5933 2.55792C15.5946 2.55375 15.5975 2.55042 15.5987 2.54625L16.03 0.936667C16.0896 0.714583 15.9575 0.485833 15.7354 0.42625C15.5146 0.3675 15.2846 0.49875 15.225 0.720833L14.7938 2.33042C14.7925 2.335 14.7937 2.33958 14.7929 2.34417C14.2062 2.21167 13.6083 2.12792 13.005 2.09833C12.9767 2.07667 12.9475 2.0575 12.9167 2.03958V0.416667C12.9167 0.18625 12.7304 0 12.5 0C12.2696 0 12.0833 0.18625 12.0833 0.416667V2.03958C12.0529 2.05708 12.0242 2.07625 11.9962 2.0975C11.3983 2.12583 10.8 2.20792 10.2071 2.34167C10.2062 2.33792 10.2075 2.33417 10.2063 2.33042L9.775 0.720417C9.71583 0.497917 9.48792 0.366667 9.26458 0.425833C9.0425 0.485417 8.91042 0.71375 8.97 0.93625L9.40125 2.54583C9.40208 2.54958 9.405 2.5525 9.40583 2.55625C8.81125 2.74208 8.22625 2.98417 7.65667 3.28375C7.65458 3.27958 7.65458 3.27458 7.65208 3.27042L6.81875 1.82708C6.70375 1.62708 6.44833 1.55958 6.25 1.675C6.05042 1.79 5.98208 2.045 6.0975 2.24417L6.93083 3.6875C6.9325 3.69083 6.93542 3.69292 6.9375 3.69583C6.39333 4.03917 5.89208 4.42542 5.43417 4.8475C5.43208 4.845 5.43125 4.84208 5.42917 4.83958L4.25083 3.66125C4.08792 3.49833 3.82458 3.49833 3.66167 3.66125C3.49875 3.82417 3.49875 4.0875 3.66167 4.25042L4.84 5.42875C4.84125 5.43 4.84333 5.43042 4.84458 5.43208C4.41167 5.90083 4.02875 6.40542 3.69417 6.93667C3.69167 6.935 3.69042 6.9325 3.6875 6.93083L2.24417 6.0975C2.045 5.98167 1.79 6.05042 1.675 6.25C1.56 6.44958 1.62833 6.70417 1.8275 6.81917L3.27083 7.6525C3.27375 7.65417 3.27708 7.65458 3.28 7.65625C2.98583 8.21792 2.74292 8.80333 2.55542 9.40583C2.55208 9.405 2.54958 9.40208 2.54625 9.40125L0.936667 8.97C0.715417 8.91167 0.485833 9.0425 0.42625 9.26458C0.366667 9.48667 0.49875 9.71542 0.720833 9.775L2.33042 10.2063C2.33375 10.2071 2.33708 10.2067 2.34042 10.2075C2.20125 10.8233 2.11917 11.4517 2.09292 12.085C2.08958 12.085 2.08667 12.0833 2.08333 12.0833H0.416667C0.18625 12.0833 0 12.2696 0 12.5C0 12.7304 0.18625 12.9167 0.416667 12.9167H2.08333C2.08625 12.9167 2.08875 12.915 2.09208 12.915C2.11667 13.5425 2.19583 14.1713 2.33625 14.7933C2.33417 14.7938 2.3325 14.7933 2.33042 14.7938L0.720417 15.225C0.498333 15.2846 0.36625 15.5129 0.425833 15.7354C0.475417 15.9217 0.64375 16.0442 0.827917 16.0442C0.86375 16.0442 0.9 16.0396 0.93625 16.03L2.54583 15.5987C2.54917 15.5979 2.55125 15.5954 2.55417 15.5946C2.73958 16.1892 2.98083 16.775 3.28042 17.3442C3.27708 17.3458 3.27375 17.3458 3.27042 17.3475L1.82708 18.1808C1.62792 18.2958 1.55958 18.5504 1.675 18.75C1.7525 18.8837 1.89208 18.9583 2.03625 18.9583C2.10708 18.9583 2.17875 18.9404 2.24417 18.9025L3.6875 18.0692C3.69167 18.0667 3.69417 18.0625 3.69833 18.0596C4.04167 18.6037 4.42667 19.1067 4.84875 19.565C4.84625 19.5675 4.8425 19.5683 4.84 19.5708L3.66167 20.7492C3.49875 20.9121 3.49875 21.1754 3.66167 21.3383C3.74292 21.4196 3.84958 21.4604 3.95625 21.4604C4.06292 21.4604 4.16958 21.4196 4.25083 21.3383L5.42917 20.16C5.43208 20.1571 5.43292 20.1533 5.43542 20.1504C5.90417 20.5833 6.40667 20.9696 6.93792 21.3046C6.93583 21.3079 6.93292 21.3092 6.93125 21.3125L6.09792 22.7558C5.98292 22.9554 6.05125 23.21 6.25042 23.325C6.31583 23.3629 6.3875 23.3808 6.45833 23.3808C6.6025 23.3808 6.7425 23.3062 6.81958 23.1725L7.65292 21.7292C7.655 21.7254 7.655 21.7213 7.65708 21.7175C8.21917 22.0121 8.80458 22.255 9.40792 22.4421C9.40667 22.4462 9.40333 22.4496 9.40208 22.4537L8.97083 24.0633C8.91125 24.2854 9.04333 24.5142 9.26542 24.5737C9.30167 24.5833 9.33792 24.5879 9.37375 24.5879C9.5575 24.5879 9.72625 24.4654 9.77583 24.2792L10.2071 22.6696C10.2083 22.665 10.2071 22.6604 10.2079 22.6558C10.8242 22.795 11.4525 22.8787 12.0867 22.9046C12.0854 22.9087 12.0833 22.9125 12.0833 22.9167V24.5833C12.0833 24.8137 12.2696 25 12.5 25C12.7304 25 12.9167 24.8137 12.9167 24.5833V22.9167C12.9167 22.9125 12.9146 22.9092 12.9146 22.9054C13.5421 22.8808 14.1704 22.7992 14.7933 22.6583C14.7942 22.6621 14.7929 22.6658 14.7942 22.6696L15.2254 24.2792C15.275 24.4654 15.4433 24.5879 15.6275 24.5879C15.6633 24.5879 15.6996 24.5833 15.7358 24.5737C15.9579 24.5142 16.09 24.2858 16.0304 24.0633L15.5992 22.4537C15.5983 22.45 15.595 22.4475 15.5942 22.4438C16.1892 22.2579 16.7742 22.0158 17.3437 21.7158C17.3458 21.72 17.3458 21.725 17.3483 21.7292L18.1817 23.1725C18.2592 23.3062 18.3987 23.3808 18.5429 23.3808C18.6137 23.3808 18.6854 23.3629 18.7508 23.325C18.9504 23.21 19.0187 22.955 18.9033 22.7558L18.07 21.3125C18.0683 21.3092 18.065 21.3075 18.0629 21.3046C18.6071 20.9612 19.1087 20.5746 19.5667 20.1525C19.5687 20.155 19.5696 20.1579 19.5717 20.1604L20.75 21.3388C20.8312 21.42 20.9379 21.4608 21.0446 21.4608C21.1512 21.4608 21.2579 21.42 21.3392 21.3388C21.5021 21.1758 21.5021 20.9125 21.3392 20.7496L20.1608 19.5712C20.1596 19.57 20.1575 19.5696 20.1562 19.5679C20.5892 19.0992 20.9721 18.5946 21.3067 18.0633C21.3092 18.065 21.3104 18.0675 21.3133 18.0692L22.7567 18.9025C22.8221 18.9404 22.8938 18.9583 22.9646 18.9583C23.1088 18.9583 23.2487 18.8837 23.3258 18.75C23.4408 18.5504 23.3725 18.2958 23.1733 18.1808L21.73 17.3475C21.7271 17.3458 21.7237 17.3458 21.7208 17.3442C22.0154 16.7825 22.2583 16.1967 22.4458 15.5937C22.4492 15.5946 22.4517 15.5975 22.455 15.5983L24.0646 16.0296C24.1008 16.0392 24.1371 16.0438 24.1729 16.0438C24.3567 16.0438 24.5254 15.9212 24.575 15.735C24.6346 15.5129 24.5025 15.2842 24.2804 15.2246L22.6708 14.7933C22.6675 14.7925 22.6642 14.7933 22.6604 14.7929C22.7996 14.1771 22.8821 13.5483 22.9079 12.9146C22.9104 12.915 22.9133 12.9167 22.9167 12.9167ZM20.0779 8.125C21.545 10.6658 21.5812 13.6413 20.4508 16.1279L16.5254 13.8612C16.4992 13.8462 16.4717 13.8371 16.445 13.825C16.4725 13.7433 16.5017 13.6625 16.5242 13.5783C16.8125 12.5038 16.665 11.3812 16.1083 10.4171C15.5067 9.37542 14.4812 8.66208 13.3246 8.42583C13.3275 8.395 13.3333 8.365 13.3333 8.33333V3.79375C16.1275 4.06583 18.6604 5.67042 20.0779 8.125ZM12.4983 10C13.3896 10 14.2196 10.4787 14.6646 11.25C14.9983 11.8283 15.0871 12.5021 14.9146 13.1471C14.7417 13.7921 14.3283 14.3312 13.75 14.665C13.37 14.8842 12.9383 15 12.5017 15C11.6104 15 10.7804 14.5212 10.3354 13.75C10.0017 13.1717 9.91292 12.4979 10.0854 11.8529C10.2583 11.2079 10.6717 10.6688 11.25 10.335C11.63 10.1158 12.0617 10 12.4983 10ZM8.125 4.92208C9.215 4.29292 10.4258 3.91125 11.6667 3.79208V8.33333C11.6667 8.36458 11.6725 8.39458 11.6758 8.425C11.2362 8.51417 10.8096 8.66625 10.4171 8.89292C9.45333 9.44875 8.76417 10.3471 8.47625 11.4221C8.26042 12.2258 8.28917 13.0567 8.55 13.8279C8.525 13.8392 8.49917 13.8475 8.475 13.8617L4.54167 16.1325C2.68958 12.0804 4.19042 7.19417 8.125 4.92208ZM16.875 20.0779C15.5446 20.8458 14.0354 21.2521 12.5096 21.2521C9.66833 21.2521 7.00833 19.8596 5.3775 17.5746L9.30833 15.305C9.33583 15.2892 9.35875 15.2692 9.38375 15.2508C10.1671 16.135 11.2992 16.6667 12.5042 16.6667H12.5046C13.2308 16.6667 13.9496 16.4729 14.5829 16.1075C14.98 15.8783 15.3271 15.5887 15.6221 15.255C15.6454 15.2717 15.6662 15.2904 15.6917 15.305L19.6187 17.5725C18.9137 18.5654 17.9967 19.43 16.875 20.0779Z" fill="#000"/>
</svg>
