<?xml version="1.0" encoding="utf-8"?><!-- Uploaded to: SVG Repo, www.svgrepo.com, Generator: SVG Repo Mixer Tools -->
<svg width="800px" height="800px" viewBox="0 0 24 24" fill="none" xmlns="http://www.w3.org/2000/svg">
<path fill-rule="evenodd" clip-rule="evenodd" d="M10.6319 1.87859C11.1577 0.707136 12.8208 0.707139 13.3466 1.87859L15.9147 7.60055L22.1502 8.2748C23.4268 8.41284 23.9408 9.9946 22.9891 10.8566L18.3408 15.0672L19.6264 21.2059C19.8896 22.4627 18.5441 23.4403 17.4302 22.8016L11.9893 19.6819L6.54831 22.8016C5.43439 23.4403 4.08887 22.4627 4.35207 21.2059L5.6377 15.0672L0.989383 10.8566C0.0377377 9.99459 0.551685 8.41284 1.82827 8.2748L8.06378 7.60055L10.6319 1.87859ZM11.9893 3.7387L9.76817 8.68742C9.55183 9.16946 9.09606 9.50059 8.57077 9.55739L3.1779 10.1405L7.19806 13.7821C7.58965 14.1368 7.76374 14.6726 7.65543 15.1898L6.54354 20.4989L11.2492 17.8008C11.7076 17.538 12.2709 17.538 12.7293 17.8008L17.435 20.4989L16.3231 15.1898C16.2148 14.6726 16.3888 14.1369 16.7804 13.7821L20.8006 10.1405L15.4077 9.55739C14.8824 9.50059 14.4267 9.16946 14.2103 8.68742L11.9893 3.7387Z" fill="#000"/>
</svg>