<?xml version="1.0" encoding="iso-8859-1"?>
<!-- Uploaded to: SVG Repo, www.svgrepo.com, Generator: SVG Repo Mixer Tools -->
<svg fill="#000" height="800px" width="800px" version="1.1" id="Capa_1" xmlns="http://www.w3.org/2000/svg" xmlns:xlink="http://www.w3.org/1999/xlink" 
	 viewBox="0 0 66.383 66.383" xml:space="preserve">
<g>
	<path d="M33.265,0.002L33.191,0l-0.074,0.002C21.841,0.28,9.704,7.697,9.704,23.324c0,8.91,5.177,14.091,8.957,17.875
		c1.317,1.317,3.121,3.123,3.191,3.893l0.25,2.727h22.18l0.249-2.727c0.07-0.77,1.874-2.575,3.191-3.893
		c3.78-3.784,8.957-8.965,8.957-17.875C56.68,7.698,44.542,0.281,33.265,0.002z M43.479,36.958c-1.661,1.662-3.171,3.173-4.075,4.86
		H26.979c-0.904-1.688-2.414-3.198-4.074-4.86c-3.375-3.379-7.202-7.208-7.202-13.634c0-11.635,8.771-17.078,17.489-17.322
		c8.717,0.245,17.487,5.687,17.487,17.322C50.68,29.75,46.854,33.58,43.479,36.958z"/>
	<path d="M21.192,53.835c0,6.919,5.383,12.548,12,12.548c6.617,0,12-5.629,12-12.548v-3h-24
		C21.192,50.835,21.192,53.835,21.192,53.835z M38.524,56.835c-0.998,2.105-3.014,3.548-5.332,3.548s-4.334-1.442-5.333-3.548
		H38.524z"/>
</g>
</svg>