<?xml version="1.0" encoding="utf-8"?>

<!DOCTYPE svg PUBLIC "-//W3C//DTD SVG 1.1//EN" "http://www.w3.org/Graphics/SVG/1.1/DTD/svg11.dtd">
<!-- Uploaded to: SVG Repo, www.svgrepo.com, Generator: SVG Repo Mixer Tools -->
<svg height="800px" width="800px" version="1.1" id="_x32_" xmlns="http://www.w3.org/2000/svg" xmlns:xlink="http://www.w3.org/1999/xlink" 
	 viewBox="0 0 512 512"  xml:space="preserve">
<g>
	<path class="st0" d="M470.082,289.734c-28.623-0.334-61.428,22.378-61.428,22.378l11.32-188.503
		c0.874-14.74-9.61-27.731-24.219-29.962c0,0-28.102-23.223-139.769-23.223c-111.629,0-139.75,23.223-139.75,23.223
		c-14.609,2.23-25.092,15.222-24.218,29.962l11.301,188.503c0,0-32.806-22.712-61.428-22.378
		C13.21,290.078-11.324,313.497,5.497,342.9c45.314,79.355,168.132,98.676,259.596,98.676c91.463,0,196.067-19.321,241.418-98.676
		C523.313,313.497,498.798,290.078,470.082,289.734z M386.833,331.99c-71.372,23.791-130.848,19.33-130.848,19.33
		s-59.476,4.46-130.848-19.33l-2.36-47.581c0,0,58.862,14.869,133.208,14.869c74.345,0,133.246-14.869,133.246-14.869
		L386.833,331.99z"/>
</g>
</svg>