<?xml version="1.0" ?><svg width="120px" height="120px" viewBox="0 0 120 120" id="Layer_1" style="enable-background:new 0 0 120 120;" version="1.1" xml:space="preserve" xmlns="http://www.w3.org/2000/svg" xmlns:xlink="http://www.w3.org/1999/xlink"><style type="text/css">
	.st0{fill:#F46262;}
	.st1{fill:#FFC54D;}
	.st2{fill:#FFFFFF;}
	.st3{fill:#DBB68F;}
</style><g><path class="st0" d="M79.6,46.2c-0.7,0-1.3,0.3-1.7,0.9c-4,5.6-10.5,9.3-17.9,9.3s-13.9-3.7-17.9-9.3c-0.4-0.5-1-0.9-1.7-0.9h-2.7   c-1.3,0-2.2,1.2-2,2.5l11,48.1c0.2,0.9,1,1.6,2,1.6h22.5c0.9,0,1.8-0.6,2-1.6l11-48.1c0.3-1.3-0.7-2.5-2-2.5H79.6z"/><circle class="st1" cx="60" cy="34.5" r="19.7"/><g><path class="st2" d="M67.8,73H52.2c-0.9,0-1.6,0.7-1.6,1.6c0,0.9,0.7,1.6,1.6,1.6h15.5c0.9,0,1.6-0.7,1.6-1.6    C69.4,73.7,68.7,73,67.8,73z"/><path class="st2" d="M52.2,68.8h15.5c0.9,0,1.6-0.7,1.6-1.6c0-0.9-0.7-1.6-1.6-1.6H52.2c-0.9,0-1.6,0.7-1.6,1.6    C50.6,68.1,51.3,68.8,52.2,68.8z"/><path class="st2" d="M67.8,80.4H52.2c-0.9,0-1.6,0.7-1.6,1.6s0.7,1.6,1.6,1.6h15.5c0.9,0,1.6-0.7,1.6-1.6S68.7,80.4,67.8,80.4z"/></g><path class="st3" d="M37.4,105.2h45.2c0.9,0,1.5-0.7,1.5-1.5v-7.2c0-0.9-0.7-1.5-1.5-1.5H37.4c-0.9,0-1.5,0.7-1.5,1.5v7.2   C35.8,104.5,36.5,105.2,37.4,105.2z"/><path class="st2" d="M71.4,30.8c-0.6,0-1,0.4-1.1,0.9l-6.6-1l-3.1-6.2c0.3-0.2,0.6-0.6,0.6-1c0-0.6-0.5-1.1-1.1-1.1   c-0.6,0-1.1,0.5-1.1,1.1c0,0.5,0.3,0.9,0.7,1l-3,6.2l-6.8,1c-0.1-0.5-0.5-1-1.1-1c-0.6,0-1.1,0.5-1.1,1.1c0,0.6,0.5,1.1,1.1,1.1   c0.3,0,0.6-0.1,0.8-0.3l4.9,4.8l-1.2,6.8c-0.1,0-0.1,0-0.2,0c-0.6,0-1.1,0.5-1.1,1.1c0,0.6,0.5,1.1,1.1,1.1c0.6,0,1.1-0.5,1.1-1.1   c0-0.2-0.1-0.4-0.1-0.5l6.1-3.2l6.1,3.2c-0.1,0.2-0.1,0.3-0.1,0.5c0,0.6,0.5,1.1,1.1,1.1c0.6,0,1.1-0.5,1.1-1.1   c0-0.6-0.5-1.1-1.1-1.1c-0.1,0-0.1,0-0.2,0l-1.2-6.8l4.9-4.7c0.2,0.2,0.4,0.3,0.7,0.3c0.6,0,1.1-0.5,1.1-1.1   C72.5,31.3,72,30.8,71.4,30.8z"/></g></svg>