<?xml version="1.0" ?><svg width="120px" height="120px" viewBox="0 0 120 120" id="Layer_1" style="enable-background:new 0 0 120 120;" version="1.1" xml:space="preserve" xmlns="http://www.w3.org/2000/svg" xmlns:xlink="http://www.w3.org/1999/xlink"><style type="text/css">
	.st0{fill:#E8B04B;}
	.st1{fill:#333333;}
	.st2{fill:#282828;}
	.st3{fill:#FFC54D;}
</style><rect class="st0" height="17.9" width="8.6" x="55.7" y="56.8"/><path class="st1" d="M82.1,104.3H37.9c-1,0-1.8-0.8-1.8-1.8V72.9c0-1,0.8-1.8,1.8-1.8h44.2c1,0,1.8,0.8,1.8,1.8v29.6  C83.9,103.5,83.1,104.3,82.1,104.3z"/><path class="st2" d="M31.4,109h57.2c1,0,1.8-0.8,1.8-1.8v-5.8c0-1-0.8-1.8-1.8-1.8H31.4c-1,0-1.8,0.8-1.8,1.8v5.8  C29.5,108.2,30.4,109,31.4,109z"/><path class="st3" d="M61.6,12.5l7.8,15.8c0.3,0.5,0.8,0.9,1.3,1l17.4,2.5c1.5,0.2,2,2,1,3L76.5,47.1c-0.4,0.4-0.6,1-0.5,1.6L79,66  c0.2,1.5-1.3,2.6-2.6,1.9l-15.6-8.2c-0.5-0.3-1.1-0.3-1.7,0l-15.6,8.2c-1.3,0.7-2.8-0.4-2.6-1.9l3-17.3c0.1-0.6-0.1-1.2-0.5-1.6  L30.9,34.8c-1.1-1-0.5-2.8,1-3l17.4-2.5c0.6-0.1,1.1-0.4,1.3-1l7.8-15.8C59.1,11.2,60.9,11.2,61.6,12.5z"/><path class="st3" d="M70.5,94.1h-21c-0.7,0-1.2-0.5-1.2-1.2V79.8c0-0.7,0.5-1.2,1.2-1.2h21c0.7,0,1.2,0.5,1.2,1.2v13.1  C71.7,93.6,71.1,94.1,70.5,94.1z"/></svg>