<?xml version="1.0" ?><svg width="120px" height="120px" viewBox="0 0 120 120" id="Layer_1" style="enable-background:new 0 0 120 120;" version="1.1" xml:space="preserve" xmlns="http://www.w3.org/2000/svg" xmlns:xlink="http://www.w3.org/1999/xlink"><style type="text/css">
	.st0{fill:#FFC54D;}
	.st1{fill:#EDB248;}
	.st2{fill:#81E2A4;}
</style><g><path class="st0" d="M83.8,60.8c6.9-1,12.4-3.7,16.3-8.2c7.8-9.1,6.4-21.8,6.4-22.4l-0.2-1.7H91.9c-0.1-3.4-0.4-6.8-1-10H29   c-0.5,3.2-0.8,6.6-1,10H13.7l-0.2,1.7c-0.1,0.5-1.4,13.3,6.4,22.4c3.9,4.5,9.4,7.2,16.3,8.2c5,8.8,11.5,15.5,16.9,18.9V88H36.6   c-2.4,0-4.3,1.9-4.3,4.3v9.2h55.6v-9.2c0-2.4-1.9-4.3-4.3-4.3H66.9v-8.2C72.3,76.3,78.8,69.6,83.8,60.8z M97.1,50.1   c-2.7,3.1-6.4,5.2-11,6.3c3.4-7.1,5.7-15.3,5.9-24h10.7C102.8,36,102.3,44.1,97.1,50.1z M22.9,50.1c-5.1-6-5.6-14.1-5.6-17.6H28   c0.2,8.7,2.5,16.9,5.9,24C29.3,55.3,25.6,53.2,22.9,50.1z"/><path class="st1" d="M60.5,34.6l2.9,5.8c0.1,0.2,0.2,0.3,0.5,0.3l6.4,0.9c0.5,0.1,0.6,0.6,0.3,1L65.9,47c-0.2,0.2-0.2,0.3-0.2,0.5   l1.1,6.4c0.1,0.5-0.4,0.8-0.8,0.6l-5.7-3c-0.2-0.1-0.4-0.1-0.5,0l-5.7,3c-0.4,0.2-0.9-0.2-0.8-0.6l1.1-6.4c0-0.2,0-0.4-0.2-0.5   l-4.6-4.5c-0.3-0.3-0.2-0.9,0.3-1l6.4-0.9c0.2,0,0.3-0.2,0.5-0.3l2.9-5.8C59.7,34.1,60.3,34.1,60.5,34.6z"/><g><polygon class="st2" points="19.1,83.9 23.4,78.6 27.7,83.9 27.7,28.5 19.1,28.5   "/><polygon class="st2" points="92.3,28.5 92.3,83.9 96.6,78.6 100.9,83.9 100.9,28.5   "/></g></g></svg>