<?xml version="1.0" ?><svg width="120px" height="120px" viewBox="0 0 120 120" id="Layer_1" style="enable-background:new 0 0 120 120;" version="1.1" xml:space="preserve" xmlns="http://www.w3.org/2000/svg" xmlns:xlink="http://www.w3.org/1999/xlink"><style type="text/css">
	.st0{fill:#FFC54D;}
	.st1{fill:#F46262;}
	.st2{fill:#FFE8A2;}
</style><g><path class="st0" d="M84.5,70c-1.2,0-2.2,0.9-2.4,2L67.8,70l-6.6-13.4c0.7-0.4,1.2-1.2,1.2-2.1c0-1.3-1.1-2.4-2.4-2.4   s-2.4,1.1-2.4,2.4c0,1,0.6,1.9,1.5,2.2L52.6,70l-14.7,2.1c-0.2-1.2-1.2-2.1-2.4-2.1c-1.3,0-2.4,1.1-2.4,2.4c0,1.3,1.1,2.4,2.4,2.4   c0.7,0,1.3-0.3,1.7-0.7l10.6,10.3l-2.5,14.6c-0.1,0-0.2,0-0.4,0c-1.3,0-2.4,1.1-2.4,2.4c0,1.3,1.1,2.4,2.4,2.4   c1.3,0,2.4-1.1,2.4-2.4c0-0.4-0.1-0.8-0.3-1.2l13.1-6.9l13.1,6.9c-0.2,0.3-0.3,0.7-0.3,1.1c0,1.3,1.1,2.4,2.4,2.4   c1.3,0,2.4-1.1,2.4-2.4c0-1.3-1.1-2.4-2.4-2.4c-0.1,0-0.2,0-0.4,0l-2.5-14.6L83,74.3c0.4,0.3,0.9,0.5,1.5,0.5   c1.3,0,2.4-1.1,2.4-2.4C86.9,71.1,85.8,70,84.5,70z"/><path class="st1" d="M76.2,54.3H44c-2.5,0-4.5-2-4.5-4.5v-5.3h41.1v5.3C80.6,52.3,78.6,54.3,76.2,54.3z"/><rect class="st1" height="27.5" width="41.1" x="39.5" y="16.1"/><rect class="st2" height="29.8" width="17.2" x="51.5" y="16.1"/><path class="st0" d="M82.9,45.9H37.1c-0.7,0-1.2-0.5-1.2-1.2v-0.3c0-0.7,0.5-1.2,1.2-1.2h45.9c0.7,0,1.2,0.5,1.2,1.2v0.3   C84.1,45.3,83.6,45.9,82.9,45.9z"/></g></svg>