<?xml version="1.0" ?><svg width="120px" height="120px" viewBox="0 0 120 120" id="Layer_1" style="enable-background:new 0 0 120 120;" version="1.1" xml:space="preserve" xmlns="http://www.w3.org/2000/svg" xmlns:xlink="http://www.w3.org/1999/xlink"><style type="text/css">
	.st0{fill:#FFC54D;}
	.st1{fill:#EDB24A;}
	.st2{fill:#5195FF;}
	.st3{fill:#F46262;}
</style><g><circle class="st0" cx="60" cy="83.7" r="23.3"/><circle class="st1" cx="60" cy="83.7" r="18.7"/><path class="st0" d="M60,54.4c-2.2,0-4,1.8-4,4s1.8,4,4,4s4-1.8,4-4S62.2,54.4,60,54.4z M60,61.1c-1.5,0-2.6-1.2-2.6-2.6   s1.2-2.6,2.6-2.6s2.6,1.2,2.6,2.6S61.5,61.1,60,61.1z"/><path class="st2" d="M82.2,15.7v31.2c0,0.9-0.6,1.8-1.6,2.3l-11.9,5.6L61.7,58c-1,0.5-2.3,0.5-3.3,0l-6.9-3.3l-11.9-5.6   c-1-0.5-1.6-1.4-1.6-2.3V15.7c0-1.5,1.5-2.7,3.3-2.7h37.7C80.7,13,82.2,14.2,82.2,15.7z"/><path class="st3" d="M68.6,13v41.8L61.7,58c-1,0.5-2.3,0.5-3.3,0l-6.9-3.3V13H68.6z"/></g></svg>