<?xml version="1.0" ?><svg width="120px" height="120px" viewBox="0 0 120 120" id="Layer_1" style="enable-background:new 0 0 120 120;" version="1.1" xml:space="preserve" xmlns="http://www.w3.org/2000/svg" xmlns:xlink="http://www.w3.org/1999/xlink"><style type="text/css">
	.st0{fill:#5497FF;}
	.st1{fill:#DBB68F;}
	.st2{fill:#FFC54D;}
	.st3{fill:#FFFFFF;}
</style><g><path class="st0" d="M48.1,91.5h23.9c0.6,0,1-0.4,1.1-1l12.1-75.4c0.2-1.1-1.2-1.8-2-1C80,17.9,73.5,23.8,63,28.2   c-5.1,2.1-18.2,5-22,5.8c-0.6,0.1-1,0.7-0.9,1.3L47,90.5C47,91.1,47.5,91.5,48.1,91.5z"/><path class="st1" d="M86.8,94.1h-3.7V91c0-1-0.8-1.8-1.8-1.8H38.7c-1,0-1.8,0.8-1.8,1.8v3.1h-3.7c-1,0-1.8,0.8-1.8,1.8v8.5   c0,1,0.8,1.8,1.8,1.8h53.7c1,0,1.8-0.8,1.8-1.8V96C88.7,94.9,87.8,94.1,86.8,94.1z"/><path class="st2" d="M61.6,42.5l2.5,5c0.1,0.2,0.2,0.3,0.4,0.3l5.5,0.8c0.5,0.1,0.7,0.6,0.3,1l-4,3.9c-0.1,0.1-0.2,0.3-0.2,0.5   l0.9,5.5c0.1,0.5-0.4,0.8-0.8,0.6l-5-2.6c-0.2-0.1-0.4-0.1-0.5,0l-5,2.6c-0.4,0.2-0.9-0.1-0.8-0.6L56,54c0-0.2,0-0.4-0.2-0.5   l-4-3.9c-0.3-0.3-0.2-0.9,0.3-1l5.5-0.8c0.2,0,0.3-0.1,0.4-0.3l2.5-5C60.8,42,61.4,42,61.6,42.5z"/><g><path class="st3" d="M67.9,69.1H54.3c-0.7,0-1.3,0.6-1.3,1.3s0.6,1.3,1.3,1.3h13.6c0.7,0,1.3-0.6,1.3-1.3S68.6,69.1,67.9,69.1z"/><path class="st3" d="M65.3,74.3h-8.5c-0.7,0-1.3,0.6-1.3,1.3c0,0.7,0.6,1.3,1.3,1.3h8.5c0.7,0,1.3-0.6,1.3-1.3    C66.7,74.9,66.1,74.3,65.3,74.3z"/></g></g></svg>