<?xml version="1.0" ?><svg width="120px" height="120px" viewBox="0 0 120 120" id="Layer_1" style="enable-background:new 0 0 120 120;" version="1.1" xml:space="preserve" xmlns="http://www.w3.org/2000/svg" xmlns:xlink="http://www.w3.org/1999/xlink"><style type="text/css">
	.st0{fill:#FFC54D;}
	.st1{fill:#7C6850;}
	.st2{fill:#FFFFFF;}
</style><g><path class="st0" d="M61.8,16.5l10.3,20.6c0.3,0.5,0.8,1.1,1.6,1.1l22.8,3.3c1.6,0.3,2.2,2.2,1.1,3.5L81,61   c-0.5,0.5-0.8,1.1-0.5,1.9l3.8,22.8c0.3,1.6-1.4,3-3,2.2L60.9,77c-0.5-0.3-1.4-0.3-1.9,0L38.7,87.9c-1.4,0.8-3.3-0.5-3-2.2   l3.8-22.8c0-0.5,0-1.4-0.5-1.9L22.4,45c-1.1-1.1-0.5-3.3,1.1-3.5l22.8-3.3c0.5,0,1.1-0.5,1.6-1.1l10.3-20.6   C59.1,14.9,60.9,14.9,61.8,16.5z"/><path class="st1" d="M91.1,83.8H28.9c-1.3,0-2.3,0.9-2.6,2.1l-3.6,15.5c-0.4,1.7,0.9,3.3,2.6,3.3h69.5c1.7,0,3-1.6,2.6-3.3   l-3.6-15.5C93.5,84.6,92.4,83.8,91.1,83.8z"/><path class="st2" d="M73.6,98.3H46.4c-0.6,0-1.2-0.5-1.2-1.2v-5.9c0-0.6,0.5-1.2,1.2-1.2h27.1c0.6,0,1.2,0.5,1.2,1.2v5.9   C74.7,97.8,74.2,98.3,73.6,98.3z"/></g></svg>