<?xml version="1.0" ?><svg width="120px" height="120px" viewBox="0 0 120 120" id="Layer_1" style="enable-background:new 0 0 120 120;" version="1.1" xml:space="preserve" xmlns="http://www.w3.org/2000/svg" xmlns:xlink="http://www.w3.org/1999/xlink"><style type="text/css">
	.st0{fill:#FFC54D;}
</style><path class="st0" d="M101,35.3l-0.2-1.7h-10c0.5-3.4,0.8-6.9,1-10.5c0.1-1.9-1.4-3.5-3.1-3.5H31.4c-1.8,0-3.2,1.6-3.1,3.5  c0.1,3.6,0.5,7.1,1,10.5h-10L19,35.3c-0.1,0.4-1.2,10.6,5.4,19.8c4.3,6,11,10.1,19.7,12.2c2.8,2.8,5.9,4.9,9.2,6.2  c-0.4,4.1-0.9,8.1-1.4,11.8h-3.2c-5,0-9,4-9,9v6.2h40.6v-6.2c0-5-4-9-9-9h-3.1c-0.6-3.8-1.1-7.7-1.5-11.8c3.3-1.2,6.4-3.3,9.2-6.2  c8.7-2.1,15.4-6.2,19.7-12.2C102.2,45.9,101,35.7,101,35.3z M27.3,52.6c-4.2-5.8-4.7-12.1-4.7-15.1h7.3c1.9,9.5,5.3,17.9,9.6,24.2  C34.3,59.7,30.2,56.6,27.3,52.6z M92.7,52.6c-2.9,4-7,7.1-12.2,9.1c4.4-6.4,7.7-14.7,9.6-24.2h7.3C97.4,40.5,96.8,46.8,92.7,52.6z"/></svg>