<?xml version="1.0" ?><svg width="120px" height="120px" viewBox="0 0 120 120" id="Layer_1" style="enable-background:new 0 0 120 120;" version="1.1" xml:space="preserve" xmlns="http://www.w3.org/2000/svg" xmlns:xlink="http://www.w3.org/1999/xlink"><style type="text/css">
	.st0{fill:#FFC54D;}
	.st1{fill:#285FFF;}
	.st2{fill:#F46262;}
	.st3{fill:#E8B14D;}
</style><g><polygon class="st0" points="65.6,62.7 54.4,62.7 44.7,68.3 39,78.1 39,89.3 44.7,99 54.4,104.7 65.6,104.7 75.3,99 81,89.3    81,78.1 75.3,68.3  "/><polygon class="st1" points="93.7,15.3 77.9,15.3 60,45 42.1,15.3 26.3,15.3 54.8,62.7 60,60.5 65.2,62.7  "/><path class="st2" d="M73.4,64.2H46.5c-2.5,0-4.5-2-4.5-4.5v-4.1h35.9v4.1C77.9,62.2,75.9,64.2,73.4,64.2z"/><path class="st0" d="M79.8,56.8H40.1c-0.7,0-1.2-0.5-1.2-1.2l0,0c0-0.7,0.5-1.2,1.2-1.2h39.7c0.7,0,1.2,0.5,1.2,1.2l0,0   C81,56.3,80.4,56.8,79.8,56.8z"/><circle class="st3" cx="60" cy="83.7" r="15.3"/><path class="st2" d="M60.7,74.7l2.5,4.9c0.1,0.2,0.4,0.4,0.6,0.5l5.4,0.8c0.6,0.1,0.9,0.9,0.5,1.3l-3.9,3.9   c-0.2,0.2-0.3,0.5-0.2,0.7l0.9,5.4c0.1,0.6-0.6,1.2-1.2,0.8l-4.9-2.6c-0.2-0.1-0.5-0.1-0.8,0L54.7,93c-0.6,0.3-1.3-0.2-1.2-0.8   l0.9-5.4c0.1-0.2-0.1-0.5-0.2-0.7l-3.9-3.9c-0.5-0.5-0.2-1.3,0.5-1.3l5.4-0.8c0.2-0.1,0.5-0.2,0.6-0.5l2.5-4.9   C59.6,74.1,60.4,74.1,60.7,74.7z"/></g></svg>