<?xml version="1.0" ?><svg width="120px" height="120px" viewBox="0 0 120 120" id="Layer_1" style="enable-background:new 0 0 120 120;" version="1.1" xml:space="preserve" xmlns="http://www.w3.org/2000/svg" xmlns:xlink="http://www.w3.org/1999/xlink"><style type="text/css">
	.st0{fill:#FFC54D;}
	.st1{fill:#F46262;}
	.st2{fill:#FFFFFF;}
	.st3{fill:#285FFF;}
</style><g><circle class="st0" cx="60.1" cy="81.5" r="22.5"/><path class="st1" d="M76.2,59.9H44c-2.5,0-4.5-2-4.5-4.5v-5.3h41.1v5.3C80.6,57.9,78.6,59.9,76.2,59.9z"/><path class="st1" d="M76.2,16H44c-2.5,0-4.5,2-4.5,4.5v28.3h41.1V20.5C80.6,18,78.6,16,76.2,16z"/><path class="st2" d="M61.1,69l3.4,6.8c0.2,0.3,0.5,0.6,0.8,0.6l7.5,1.1c0.9,0.2,1.3,1.2,0.6,1.9L68,84.8c-0.2,0.2-0.4,0.6-0.3,1   l1.3,7.5c0.2,0.9-0.8,1.6-1.6,1.1l-6.7-3.5c-0.3-0.2-0.7-0.2-1,0l-6.8,3.5c-0.8,0.4-1.8-0.2-1.6-1.1l1.3-7.5c0.1-0.3-0.1-0.7-0.3-1   l-5.4-5.3c-0.6-0.6-0.3-1.8,0.6-1.9l7.5-1.1c0.3-0.1,0.6-0.2,0.8-0.6l3.4-6.8C59.5,68.2,60.7,68.2,61.1,69z"/><rect class="st0" height="35.5" width="17.2" x="51.5" y="16"/><path class="st3" d="M82.9,51.5H37.1c-0.7,0-1.2-0.5-1.2-1.2v-0.3c0-0.7,0.5-1.2,1.2-1.2h45.9c0.7,0,1.2,0.5,1.2,1.2v0.3   C84.1,50.9,83.6,51.5,82.9,51.5z"/></g></svg>