<?xml version="1.0" ?><svg width="64px" height="64px" viewBox="0 0 64 64" xmlns="http://www.w3.org/2000/svg"><g id="a"/><g id="b"/><g id="c"><path d="M43.93,5.96c-.11-.6-.79-.9-1.31-.58l-10.62,6.56-9.97-6.79c-.16-.11-.34-.16-.53-.15-.39,.02-.72,.29-.8,.67l-2.87,12.15-11.86,2.25c-.6,.11-.9,.79-.58,1.31l6.56,10.62-6.79,9.97c-.34,.5-.07,1.2,.52,1.34l12.15,2.87,2.25,11.86c.11,.6,.79,.9,1.31,.58l10.62-6.56,9.97,6.79c.51,.34,1.2,.07,1.34-.52l2.87-12.15,11.86-2.25c.6-.11,.9-.79,.58-1.31l-6.56-10.62,6.79-9.97c.34-.5,.07-1.2-.52-1.34l-12.15-2.87-2.25-11.86Z" fill="#fdda5c" id="d"/><path d="M46.18,17.82l-14.18-5.87-14.18,5.87-5.87,14.18,5.87,14.18,14.18,5.87,14.18-5.87,5.87-14.18-5.87-14.18Z" fill="#fce87b" id="e"/><path d="M59.97,21.19c-.09-.49-.37-.92-.78-1.19-.19-.13-.4-.22-.63-.28l-11.51-2.72-2.13-11.22c-.09-.49-.37-.92-.78-1.2-.41-.28-.92-.38-1.4-.29-.22,.04-.44,.12-.64,.25l-10.07,6.22-9.44-6.43c-.41-.28-.91-.39-1.4-.29-.49,.09-.92,.37-1.2,.78-.13,.19-.22,.4-.28,.62l-2.72,11.51-11.22,2.13c-1.01,.19-1.68,1.17-1.49,2.19,.04,.22,.12,.44,.24,.63h0l6.22,10.07-6.43,9.44c-.28,.41-.38,.91-.29,1.4,.09,.49,.37,.92,.78,1.19,.19,.13,.4,.22,.63,.28l11.52,2.72,2.13,11.22c.09,.49,.37,.92,.78,1.2,.41,.28,.91,.38,1.4,.29,.22-.04,.44-.12,.64-.25l10.07-6.22,9.44,6.43c.31,.21,.68,.33,1.05,.33,.12,0,.23-.01,.35-.03,.49-.09,.92-.37,1.2-.79,.13-.19,.22-.4,.27-.62l2.72-11.51,11.22-2.13c.49-.09,.92-.37,1.2-.79,.28-.41,.39-.91,.29-1.4-.04-.22-.12-.44-.25-.64l-6.22-10.07,6.43-9.44c.28-.41,.39-.91,.29-1.4Zm-14.55,24.23l-13.42,5.56-13.42-5.56-5.56-13.42,5.56-13.42,13.42-5.56,13.42,5.56,5.56,13.42-5.56,13.42Zm-2.43-39.08l1.87,9.86-10.67-4.42,8.8-5.44Zm-21.38-.25l8.3,5.65-10.67,4.42,2.37-10.07ZM6.33,21.01l9.86-1.87-4.42,10.67-5.44-8.8Zm5.4,13.08l4.42,10.67-10.07-2.37,5.65-8.3Zm9.29,23.58l-1.87-9.86,10.67,4.42-8.8,5.44Zm21.37,.25l-8.3-5.65,10.67-4.42-2.37,10.07Zm15.29-14.94l-9.86,1.87,4.42-10.67,5.44,8.8Zm-5.41-13.08l-4.42-10.67,10.07,2.37-5.65,8.3Z"/></g><g id="f"/><g id="g"/><g id="h"/><g id="i"/><g id="j"/><g id="k"/><g id="l"/><g id="m"/><g id="n"/><g id="o"/><g id="p"/><g id="q"/><g id="r"/><g id="s"/><g id="t"/><g id="u"/><g id="v"/><g id="w"/><g id="x"/><g id="y"/><g id="a`"/><g id="aa"/><g id="ab"/><g id="ac"/><g id="ad"/><g id="ae"/><g id="af"/><g id="ag"/><g id="ah"/><g id="ai"/><g id="aj"/><g id="ak"/><g id="al"/><g id="am"/><g id="an"/><g id="ao"/><g id="ap"/><g id="aq"/><g id="ar"/><g id="as"/><g id="at"/><g id="au"/><g id="av"/><g id="aw"/><g id="ax"/><g id="ay"/><g id="b`"/></svg>