<?xml version="1.0" ?><svg width="64px" height="64px" viewBox="0 0 64 64" xmlns="http://www.w3.org/2000/svg"><g id="a"/><g id="b"/><g id="c"/><g id="d"/><g id="e"/><g id="f"/><g id="g"/><g id="h"/><g id="i"/><g id="j"/><g id="k"/><g id="l"/><g id="m"/><g id="n"/><g id="o"/><g id="p"/><g id="q"/><g id="r"/><g id="s"/><g id="t"/><g id="u"/><g id="v"/><g id="w"/><g id="x"/><g id="y"/><g id="a`"/><g id="aa"/><g id="ab"/><g id="ac"/><g id="ad"/><g id="ae"/><g id="af"/><g id="ag"/><g id="ah"/><g id="ai"/><g id="aj"/><g id="ak"/><g id="al"/><g id="am"/><g id="an"/><g id="ao"/><g id="ap"/><g id="aq"><path d="M48.72,9.03l-.16,3.86,2.24,2.33h0l5.12-1.55c.36-.11,.42-.6,.09-.79l-6.5-3.63c-.25-.13-.52-.2-.79-.22Z" fill="#3aedbc" id="ar"/><path d="M38.66,13.27l4.94,6.51,9.12,1.76c.04-.27,.02-.55-.07-.81l-.93-2.76-.92-2.75-2.08-6.19c-.34-.04-.69,.01-1.01,.15l-9.05,4.09Z" fill="#6df4c0" id="as"/><path d="M31.96,26.31l-4.39,6.32c-.19,.28-.33,.6-.41,.93l4.42,5.56,4.95,.06-.04-9.48-4.53-3.4Z" fill="#6df4c0" id="at"/><path d="M36.53,39.18l-9.37-5.62c-.08,.3-.1,.6-.08,.91l2.19,24.12c.04,.38,.51,.54,.76,.25l10.55-11.85c.4-.45,.44-1.1,.11-1.6l-4.16-6.22h0Z" fill="#9af6d3" id="au"/><path d="M24.43,5.08s-.08-.03-.11-.04c-.32-.05-.64-.04-.96,.02l-15.23,3.22c-.38,.08-.49,.58-.17,.8L31.97,26.31l1.7-6.07L24.43,5.08Z" fill="#6df4c0" id="av"/><path d="M24.43,5.08l3.36,18.24,4.17,2.99,1.42-5.07L24.43,5.08Z" fill="#31c9a0" id="aw"/><path d="M24.43,5.08l7.54,21.24,4.57,12.87,15.75-16.75c.23-.25,.38-.56,.44-.89l-14.06-8.27-13.44-7.91c-.25-.14-.51-.23-.79-.29h0Z" fill="#9af6d3" id="ax"/><path d="M48.72,9.03l2.08,6.19h0l1.58-.48-3.66-5.71Z" fill="#31c9a0" id="ay"/><path d="M29.77,29.47l6.76,9.71-4.57-12.87-2.2,3.16Z" fill="#31c9a0" id="b`"/><path d="M52.72,21.54l-11.54-9.4-2.51,1.14,14.05,8.27Z" fill="#3aedbc" id="ba"/><path d="M30.58,26.55l-3.83,5.51c-.51,.73-.74,1.62-.66,2.5l2.19,24.13c.04,.38,.22,.73,.51,.97,.26,.22,.58,.33,.92,.33,.04,0,.09,0,.13,0,.36-.03,.7-.2,.94-.47l10.55-11.84c.7-.79,.78-1.95,.2-2.82l-3.72-5.56,15.21-16.18c.68-.73,.91-1.76,.59-2.71l-1.52-4.53,4.14-1.25c.37-.11,.67-.36,.85-.69,.18-.34,.22-.73,.11-1.09-.11-.36-.35-.65-.67-.83l-6.5-3.63c-.83-.46-1.84-.51-2.71-.12l-8.57,3.88-12.99-7.64c-.39-.23-.81-.38-1.25-.45-.44-.07-.89-.06-1.33,.03L7.92,7.3c-.78,.16-1.28,.93-1.12,1.71,.07,.36,.28,.67,.57,.88L30.58,26.55Zm1.09,1.93l2.99,8.41-6.24-3.74,3.25-4.68Zm8.19,17.48c.08,.12,.07,.27-.03,.38l-9.69,10.88-1.98-21.89,7.66,4.59,4.04,6.04Zm11.58-31.98l-1.04-3.09,3.95,2.21-2.91,.88Zm-3.41-3.86l1.82,5.41h0l1.32,3.93-10.34-6.09,7.2-3.26Zm3.36,11.79l-14.46,15.39L26.21,7.1l25.18,14.81ZM23.71,6.03l6.25,17.61L9.55,9c12.88-2.72,13.7-2.91,14.15-2.97Z"/></g><g id="bb"/><g id="bc"/><g id="bd"/><g id="be"/><g id="bf"/><g id="bg"/><g id="bh"/></svg>