<?xml version="1.0" ?><svg width="64px" height="64px" viewBox="0 0 64 64" xmlns="http://www.w3.org/2000/svg"><g id="a"/><g id="b"/><g id="c"/><g id="d"/><g id="e"/><g id="f"/><g id="g"/><g id="h"/><g id="i"/><g id="j"/><g id="k"/><g id="l"/><g id="m"/><g id="n"/><g id="o"/><g id="p"/><g id="q"/><g id="r"/><g id="s"/><g id="t"/><g id="u"/><g id="v"/><g id="w"/><g id="x"/><g id="y"/><g id="a`"/><g id="aa"/><g id="ab"/><g id="ac"/><g id="ad"/><g id="ae"/><g id="af"/><g id="ag"/><g id="ah"/><g id="ai"/><g id="aj"/><g id="ak"/><g id="al"/><g id="am"/><g id="an"/><g id="ao"/><g id="ap"/><g id="aq"/><g id="ar"/><g id="as"/><g id="at"><path d="M13.18,41.4l-.82,4.1c-.13,.63,.04,1.28,.45,1.78l2.1,2.56c.41,.5,1.01,.78,1.66,.78h30.87c.64,0,1.25-.29,1.66-.78l2.1-2.56c.41-.5,.57-1.15,.45-1.78l-.82-4.1-18.31-3.05-19.33,3.05Z" fill="#a6e5f0" id="au"/><path d="M44.59,26.46l-11.9-12.78c-.18-.18-.43-.27-.69-.27l-2.53,10.48,2.53,8.57,4.91,1.9,7.68-7.9Z" fill="#00bff8" id="av"/><path d="M27.09,34.36l4.91-1.9V13.41c-.26,0-.51,.09-.69,.27l-11.9,12.78,7.68,7.9Z" fill="#0acffb" id="aw"/><path d="M13.18,41.4h8.61l4.47-2.5,.83-4.54-2.91-6.45-7.3,1.75-6.4,6.39,2.7,5.34Z" fill="#00bff8" id="ax"/><path d="M36.91,34.36v3.02l5.3,4.02h8.61l2.7-5.34-5-6.43-8.69-1.71-2.91,6.45Z" fill="#0acffb" id="ay"/><path d="M31.39,28.65c-3.2,4.25-6.4,8.5-9.6,12.75h20.42c-3.2-4.25-6.4-8.5-9.6-12.75-.34-.45-.88-.45-1.22,0Z" fill="#d1f1f4" id="b`"/><path d="M39.83,27.91l13.7,8.14,4.98,2.96c.28,.16,.6-.12,.48-.41l-5.82-13.7c-.23-.53-.82-.8-1.37-.64l-7.19,2.2-4.76,1.46Z" fill="#62d9fa" id="ba"/><path d="M10.48,36.06l13.7-8.14-4.76-1.46-7.19-2.2c-.55-.17-1.14,.11-1.37,.64l-5.82,13.7c-.12,.29,.2,.58,.48,.41l4.98-2.96Z" fill="#62d9fa" id="bb"/><path d="M40.11,27.97l12.07,10.76,1.52-2.57-13.59-8.19Z" fill="#00bff8" id="bc"/><path d="M24.17,27.91l-12.35,10.81-1.35-2.67,13.7-8.14Z" fill="#00aee2" id="bd"/><path d="M27.09,34.36l-1.38-7.57-4.4-2.37-1.89,2.03,4.76,1.46,2.91,6.45Z" fill="#00aee2" id="be"/><path d="M36.91,34.36l1.38-7.57,4.4-2.37,1.89,2.03-4.76,1.46-2.91,6.45Z" fill="#00aee2" id="bf"/><path d="M6.01,39.87l4.05-2.41,2.06,4.08-.75,3.76c-.19,.93,.05,1.88,.65,2.61l2.1,2.56c.6,.73,1.48,1.15,2.43,1.15h30.87c.95,0,1.83-.42,2.43-1.15l2.1-2.56c.6-.73,.84-1.68,.65-2.61l-.75-3.76,2.06-4.08,4.06,2.41c.63,.37,1.45,.16,1.82-.47,.21-.36,.25-.81,.08-1.2l-5.82-13.7c-.43-1.01-1.53-1.52-2.58-1.2l-6.6,2.02-11.47-12.32c-.74-.8-2.05-.86-2.84,0l-11.47,12.32-6.6-2.02c-1.04-.32-2.15,.2-2.58,1.2l-5.83,13.7c-.29,.67,.03,1.46,.71,1.75,.39,.16,.83,.13,1.2-.08Zm5.78-3.43l11.93-7.09,2.21,4.89-4.64,6.16h-7.5l-2-3.96Zm28.41,3.96H23.8l8.2-10.91,8.21,10.91Zm10.22,6.24l-2.1,2.56c-.22,.27-.54,.42-.88,.42H16.56c-.34,0-.67-.15-.88-.42l-2.1-2.56c-.22-.27-.3-.61-.24-.95l.66-3.29H50l.66,3.3c.07,.34-.02,.68-.24,.95Zm-.21-6.24h-7.5l-4.64-6.16,2.21-4.89,11.93,7.09-2,3.96Zm1.87-15.18c.06-.02,.13,.01,.15,.07l5.03,11.82-14.97-8.9,9.8-2.99Zm-9.31,.75l-2.26,.69c-.89,.27-1.62,.92-2,1.76l-1.8,3.98-3.29-4.37c-.12-.15-.25-.29-.41-.39V15.48l9.77,10.49Zm-11.77-10.49v12.17c-.15,.1-.29,.24-.41,.39l-3.29,4.37-1.8-3.98c-.38-.85-1.12-1.49-2.01-1.76l-2.26-.69,9.77-10.49ZM11.77,25.29c.02-.06,.08-.09,.15-.07l9.79,2.99-14.97,8.9,5.03-11.82Z"/></g><g id="bg"/><g id="bh"/><g id="bi"/><g id="bj"/></svg>