<?xml version="1.0" ?><svg width="64px" height="64px" viewBox="0 0 64 64" xmlns="http://www.w3.org/2000/svg"><g id="a"/><g id="b"/><g id="c"/><g id="d"/><g id="e"/><g id="f"/><g id="g"/><g id="h"><path d="M27.15,32.17l-13.78,8.63-2.48,3.05c-.33,.4-.2,1,.26,1.24l10.02,5.29c.49,.26,1.1,.07,1.36-.42l8.35-17.8-1.47-1.34-2.25,1.34Z" fill="#f8c228" id="i"/><path d="M27.15,32.17l-13.78,8.63-2.48,3.05c-.33,.4-.2,1,.26,1.24l3.04,1.61,12.96-14.54Z" fill="#e7a21c" id="j"/><path d="M5.29,18.06l14.23,7.16,7.63,.26,.84-1.51-.84-1.51L15.43,13.82c-.25-.18-.54-.29-.83-.31-.29-.03-.6,.03-.87,.16l-7.83,3.86c-.25,.12-.46,.31-.61,.54h0Z" fill="#fdda5c" id="k"/><path d="M13.37,40.8l1.25,.62,12.53-9.25,.84-1.51-.84-1.51-9.06-.91-12.8,8.33c.15,.22,.36,.42,.61,.54l7.48,3.69Z" fill="#fdda5c" id="l"/><path d="M5.29,36.57l21.87-7.42,.83-1.65-.83-2.02L5.29,18.06c-.18,.26-.29,.57-.29,.9v16.7c0,.33,.11,.64,.29,.9Z" fill="#fce87b" id="m"/><path d="M33.12,32.17l8.35,17.8c.26,.49,.87,.67,1.36,.42l10.02-5.29c.46-.24,.58-.84,.26-1.24l-2.48-3.05-13.78-8.63-2.8-1.66-.93,1.66Z" fill="#f8c228" id="n"/><path d="M36.85,32.17l13.78,8.63,2.48,3.05c.33,.4,.2,1-.26,1.24l-3.04,1.61-12.96-14.54Z" fill="#e7a21c" id="o"/><path d="M58.71,36.57l-8.99-7.12-12.88-.3-1.57,1.18,1.57,1.84,12.53,9.25,1.25-.62,7.48-3.69c.25-.12,.46-.32,.61-.54Z" fill="#fdda5c" id="p"/><path d="M36.85,29.15l17.66,9.73,3.59-1.77c.25-.12,.46-.32,.61-.54l-21.87-7.42Z" fill="#f8c228" id="q"/><path d="M49.4,13.5c-.29,.03-.58,.13-.83,.32l-11.72,8.65-1.85,1.42,1.85,1.59,12.02-.35,9.85-7.07c-.15-.22-.36-.41-.61-.54l-7.83-3.86c-.28-.14-.58-.19-.87-.16h0Z" fill="#fdda5c" id="r"/><path d="M58.71,18.06l-21.87,7.42-1.36,1.65,1.36,2.02,21.87,7.42c.18-.26,.29-.57,.29-.9V18.97c0-.33-.11-.64-.29-.9h0Z" fill="#fce87b" id="s"/><path d="M36.85,32.17v-9.7h-9.7v9.7h9.7Z" fill="#f0f4f6" id="t"/><path d="M27.15,29.15l-17.66,9.73-3.59-1.77c-.25-.12-.46-.32-.61-.54l21.87-7.42Z" fill="#f8c228" id="u"/><path d="M58.55,16.63l-7.83-3.86c-.89-.44-1.94-.34-2.74,.24l-11.46,8.46h-9.04l-11.46-8.46c-.39-.29-.85-.46-1.34-.51-.48-.04-.97,.05-1.4,.26l-7.83,3.86c-.9,.44-1.45,1.34-1.45,2.34v16.7c0,1,.56,1.9,1.45,2.34l6.35,3.13-1.69,2.08c-.34,.42-.48,.98-.37,1.51,.11,.54,.45,.99,.94,1.25l10.02,5.29c.97,.51,2.19,.14,2.73-.88l8.08-17.23h.97l8.11,17.27c.36,.68,1.05,1.06,1.77,1.06,.32,0,.63-.07,.93-.23l10.02-5.29c.48-.25,.83-.71,.94-1.25,.11-.54-.02-1.09-.37-1.51l-1.69-2.08,6.35-3.13c.9-.44,1.45-1.34,1.45-2.34V18.97c0-1-.56-1.9-1.45-2.34Zm-20.7,11.81v-2.23l20.15-6.84v15.91l-20.15-6.84Zm11.32-13.81c.19-.14,.45-.17,.66-.06l6.56,3.23-18.54,6.29v-1.11l11.32-8.35Zm-35-.06c.1-.05,.22-.07,.34-.06,.12,.01,.23,.05,.33,.12l11.32,8.35v1.11L7.61,17.8l6.56-3.23ZM6,35.28v-15.91l20.15,6.84v2.23l-20.15,6.84Zm1.61,1.57l18.54-6.29v1.11l-11.63,8.58-.7-.35h0l-6.2-3.06Zm14.03,12.66l-9.83-5.19,1.84-2.27,.53,.26c.14,.07,.29,.1,.44,.1,.21,0,.42-.07,.59-.2l12.26-9.05h1.82l-7.67,16.33Zm6.52-18.33v-7.7h7.7v7.7h-7.7Zm14.23,18.38l-7.68-16.38h1.82l12.26,9.05c.3,.22,.7,.26,1.04,.09l.53-.26,1.84,2.27-9.81,5.23Zm7.81-9.64h0l-.7,.35-11.63-8.58v-1.11l18.54,6.29-6.21,3.06Z"/></g><g id="v"/><g id="w"/><g id="x"/><g id="y"/><g id="a`"/><g id="aa"/><g id="ab"/><g id="ac"/><g id="ad"/><g id="ae"/><g id="af"/><g id="ag"/><g id="ah"/><g id="ai"/><g id="aj"/><g id="ak"/><g id="al"/><g id="am"/><g id="an"/><g id="ao"/><g id="ap"/><g id="aq"/><g id="ar"/><g id="as"/><g id="at"/><g id="au"/><g id="av"/><g id="aw"/><g id="ax"/><g id="ay"/><g id="b`"/><g id="ba"/><g id="bb"/><g id="bc"/><g id="bd"/><g id="be"/><g id="bf"/><g id="bg"/><g id="bh"/><g id="bi"/><g id="bj"/><g id="bk"/></svg>