<svg width="7" height="13" viewBox="0 0 7 13" fill="none" xmlns="http://www.w3.org/2000/svg">
<path d="M3.76817 5.70555C2.20727 5.27944 1.7053 4.83889 1.7053 4.15278C1.7053 3.36556 2.3998 2.81667 3.56189 2.81667C4.78585 2.81667 5.23969 3.43056 5.28094 4.33333H6.80059C6.75246 3.09111 6.03045 1.95 4.59332 1.58167V0H2.53045V1.56C1.19646 1.86333 0.123772 2.77333 0.123772 4.16722C0.123772 5.83556 1.43713 6.66611 3.3556 7.15C5.07466 7.58333 5.41847 8.21889 5.41847 8.89056C5.41847 9.38889 5.08153 10.1833 3.56189 10.1833C2.14538 10.1833 1.58841 9.51889 1.51277 8.66667H0C0.0825147 10.2483 1.21022 11.1367 2.53045 11.4328V13H4.59332V11.4472C5.93418 11.18 7 10.3639 7 8.88333C7 6.83222 5.32908 6.13167 3.76817 5.70555Z" fill="#000"/>
</svg>
