<svg width="13" height="15" viewBox="0 0 13 15" fill="none" xmlns="http://www.w3.org/2000/svg">
<path d="M8.66667 0H4.33333V1.42925H8.66667V0ZM5.77778 9.29014H7.22222V5.00238H5.77778V9.29014ZM11.5772 4.55931L12.6028 3.54455C12.2922 3.18009 11.9528 2.83707 11.5844 2.53692L10.5589 3.55169C9.43944 2.66556 8.03111 2.13673 6.5 2.13673C2.91056 2.13673 0 5.01667 0 8.56837C0 12.1201 2.90333 15 6.5 15C10.0967 15 13 12.1201 13 8.56837C13 7.0605 12.4656 5.66698 11.5772 4.55931ZM6.5 13.5779C3.705 13.5779 1.44444 11.3411 1.44444 8.57551C1.44444 5.80991 3.705 3.57313 6.5 3.57313C9.295 3.57313 11.5556 5.80991 11.5556 8.57551C11.5556 11.3411 9.295 13.5779 6.5 13.5779Z" fill="#000"/>
</svg>
