<svg width="13" height="11" viewBox="0 0 13 11" fill="none" xmlns="http://www.w3.org/2000/svg">
<path d="M0 9.05882H9.75V11H0V9.05882ZM12.025 9.05882H13V11H12.025V9.05882ZM10.4 9.05882H11.375V11H10.4V9.05882ZM10.9525 3.70765C11.3555 3.31294 11.6025 2.76941 11.6025 2.16765C11.6025 0.970588 10.6275 0 9.425 0V0.970588C10.088 0.970588 10.6275 1.50765 10.6275 2.16765C10.6275 2.82765 10.088 3.36471 9.425 3.36471V4.33529C10.881 4.33529 12.025 5.51941 12.025 6.96882V8.41177H13V6.96235C13 5.52588 12.168 4.28353 10.9525 3.70765ZM9.1195 5.30588H8.125C7.462 5.30588 6.9225 4.67176 6.9225 4.01176C6.9225 3.35176 7.462 2.87941 8.125 2.87941V1.90882C6.9225 1.90882 5.9475 2.87941 5.9475 4.07647C5.9475 5.27353 6.9225 6.24412 8.125 6.24412H9.1195C9.802 6.24412 10.4 6.72294 10.4 7.57059V8.41177H11.375V7.35059C11.375 6.17941 10.335 5.30588 9.1195 5.30588Z" fill="#000"/>
</svg>
