<svg width="13" height="13" viewBox="0 0 13 13" fill="none" xmlns="http://www.w3.org/2000/svg">
<path d="M4.02488 2.22831L5.57231 3.09487L4.70575 1.54743L5.57231 0L4.02488 0.866564L2.47744 0L3.34401 1.54743L2.47744 3.09487L4.02488 2.22831ZM11.4526 8.29425L9.90513 7.42769L10.7717 8.97512L9.90513 10.5226L11.4526 9.65599L13 10.5226L12.1334 8.97512L13 7.42769L11.4526 8.29425ZM13 0L11.4526 0.866564L9.90513 0L10.7717 1.54743L9.90513 3.09487L11.4526 2.22831L13 3.09487L12.1334 1.54743L13 0ZM8.27723 3.27437C8.03583 3.03297 7.64587 3.03297 7.40448 3.27437L0.18105 10.4978C-0.06035 10.7392 -0.06035 11.1292 0.18105 11.3706L1.62945 12.819C1.87085 13.0604 2.2608 13.0604 2.5022 12.819L9.71944 5.60171C9.96084 5.36031 9.96084 4.97036 9.71944 4.72896L8.27723 3.27437ZM7.63969 6.67254L6.32746 5.36031L7.83776 3.85002L9.14998 5.16224L7.63969 6.67254Z" fill="#000"/>
</svg>
