<svg width="15" height="14" viewBox="0 0 15 14" fill="none" xmlns="http://www.w3.org/2000/svg">
<path d="M12.0017 4L12.6283 2.62667L14.0017 2L12.6283 1.37333L12.0017 0L11.375 1.37333L10.0017 2L11.375 2.62667L12.0017 4Z" fill="white"/>
<path d="M4.335 4L4.96167 2.62667L6.335 2L4.96167 1.37333L4.335 0L3.70833 1.37333L2.335 2L3.70833 2.62667L4.335 4Z" fill="white"/>
<path d="M12.0017 7.66667L11.375 9.04001L10.0017 9.66667L11.375 10.2933L12.0017 11.6667L12.6283 10.2933L14.0017 9.66667L12.6283 9.04001L12.0017 7.66667Z" fill="white"/>
<path d="M10.475 5.41334L8.58834 3.52668C8.455 3.40001 8.28834 3.33334 8.115 3.33334C7.94167 3.33334 7.775 3.40001 7.64167 3.52668L0.195 10.9733C-0.065 11.2333 -0.065 11.6533 0.195 11.9133L2.08167 13.8C2.215 13.9333 2.38167 14 2.555 14C2.72833 14 2.895 13.9333 3.02833 13.8067L10.475 6.36001C10.735 6.10001 10.735 5.67334 10.475 5.41334ZM8.115 4.94668L9.055 5.88668L8.275 6.66668L7.335 5.72668L8.115 4.94668ZM2.555 12.3933L1.615 11.4533L6.395 6.66668L7.335 7.60668L2.555 12.3933Z" fill="#000"/>
</svg>
