<?xml version="1.0" encoding="utf-8"?>

<!-- Uploaded to: SVG Repo, www.svgrepo.com, Generator: SVG Repo Mixer Tools -->
<svg fill="#000" version="1.1" id="Layer_1" xmlns="http://www.w3.org/2000/svg" xmlns:xlink="http://www.w3.org/1999/xlink" 
	 viewBox="0 0 24 24" xml:space="preserve">
<style type="text/css">
	.st0{fill:none;}
</style>
<g>
	<path d="M20,7.4v10.5c0,1.7-1.3,3-3,3H5.9c0,1.1,0.9,2,2,2H18c2.2,0,4-1.8,4-4V9.4C22,8.3,21.1,7.4,20,7.4z"/>
	<g>
		<path d="M5,1.1v2H4c-1.1,0-2,0.9-2,2v12c0,1.1,0.9,2,2,2h12.2c1.1,0,2-0.9,2-2v-12c0-1.1-0.9-2-2-2h-1v-2h-2v2H7v-2
			C7,1.1,5,1.1,5,1.1z M4,8.1h12.2v9H4V8.1z"/>
		<path d="M13.7,16.3l-2.4-1.4L9,16.3l0.6-2.7l-2.1-1.8l2.8-0.2L11.4,9l1.1,2.5l2.8,0.3l-2.1,1.8L13.7,16.3z"/>
	</g>
</g>
<rect class="st0" width="24" height="24"/>
</svg>