<?xml version="1.0" encoding="utf-8"?>

<!-- Uploaded to: SVG Repo, www.svgrepo.com, Generator: SVG Repo Mixer Tools -->
<svg fill="#000" version="1.1" id="Layer_1" xmlns="http://www.w3.org/2000/svg" xmlns:xlink="http://www.w3.org/1999/xlink" 
	 viewBox="0 0 24 24" xml:space="preserve">
<style type="text/css">
	.st0{fill:none;}
</style>
<g id="surface1">
	<path d="M19,3c0,2.2-4.3,6-9,6v6c4.7,0,9,3.6,9,6h2v-7.3c0.6-0.3,1-1,1-1.7s-0.4-1.4-1-1.7V3H19z M5,9c-0.8,0-1.5,0.5-1.8,1.2
		C2.5,10.5,2,11.2,2,12s0.5,1.5,1.2,1.8C3.5,14.5,4.2,15,5,15h0.2l2.2,7l3.5-1.1L9,15V9H5z"/>
</g>
<rect class="st0" width="24" height="24"/>
</svg>